<svg width="33" height="33" viewBox="0 0 33 33" fill="none" xmlns="http://www.w3.org/2000/svg">
<g id="623993f77547cffa504179a5_firefox.svg">
<g id="Group" style="mix-blend-mode:luminosity">
<path id="Vector" d="M29.8811 11.0234C29.2722 9.55428 28.0379 7.96827 27.069 7.46727C27.8576 9.01703 28.3138 10.5715 28.4882 11.7313C28.4882 11.7313 28.4882 11.7395 28.4911 11.7547C26.9062 7.79465 24.2183 6.19753 22.0233 2.72095C21.9119 2.54557 21.8011 2.37019 21.6926 2.18254C21.6313 2.07673 21.5817 1.98085 21.5386 1.89024C21.4476 1.71445 21.3773 1.52867 21.3292 1.33663C21.3296 1.32751 21.3265 1.31857 21.3207 1.31155C21.3149 1.30453 21.3067 1.29993 21.2977 1.29863C21.2891 1.29629 21.28 1.29629 21.2714 1.29863C21.2691 1.29969 21.2669 1.30107 21.265 1.30272C21.2615 1.30272 21.258 1.30682 21.2545 1.30798L21.2603 1.30038C17.7389 3.36751 16.5442 7.19134 16.4346 9.10472C15.0274 9.20116 13.6819 9.72046 12.5736 10.5949C12.4578 10.4967 12.3367 10.405 12.2108 10.3201C11.8914 9.19958 11.8779 8.01371 12.1717 6.88619C10.7315 7.54385 9.61158 8.58151 8.79727 9.49991H8.79085C8.23495 8.7943 8.27403 6.46703 8.30553 5.98123C8.29911 5.95083 7.89138 6.19344 7.83888 6.23027C7.34835 6.58098 6.88983 6.97459 6.46868 7.40648C5.98943 7.89343 5.55159 8.41964 5.15972 8.97962C4.25815 10.2601 3.61877 11.707 3.27853 13.2367C3.27212 13.2671 3.26628 13.2986 3.25987 13.3296C3.23362 13.453 3.13853 14.072 3.12161 14.2065V14.2375C2.99766 14.8772 2.92046 15.5251 2.89062 16.176V16.2479C2.89062 24.0066 9.16708 30.2969 16.9088 30.2969C23.8427 30.2969 29.5994 25.2518 30.727 18.6249C30.7503 18.4454 30.7695 18.2642 30.7905 18.0829C31.0694 15.6732 30.7596 13.1408 29.8811 11.0234ZM13.7233 22.0208C13.7887 22.0518 13.8505 22.0863 13.9176 22.1167L13.9269 22.1225C13.8598 22.0898 13.791 22.0559 13.7233 22.0208ZM28.4923 11.7611V11.7477V11.7629V11.7611Z" fill="url(#paint0_linear_1_1543)"/>
<path id="Vector_2" d="M29.8813 11.0239C29.2724 9.55477 28.0381 7.96877 27.0692 7.46777C27.8578 9.01753 28.314 10.572 28.4884 11.7318V11.7605C29.8114 15.3546 29.0904 19.0095 28.0521 21.2426C26.4456 24.6976 22.5567 28.239 16.4686 28.0666C9.89644 27.8795 4.10238 22.9859 3.02033 16.5816C2.82317 15.5709 3.02033 15.0582 3.11949 14.238C2.99875 14.8699 2.95266 15.0529 2.89258 16.1765V16.2484C2.89258 24.0072 9.16905 30.2974 16.9108 30.2974C23.8446 30.2974 29.6014 25.2523 30.7289 18.6254C30.7522 18.4459 30.7715 18.2647 30.7925 18.0835C31.0696 15.6738 30.7598 13.1413 29.8813 11.0239Z" fill="url(#paint1_radial_1_1543)"/>
<path id="Vector_3" d="M29.8813 11.0239C29.2724 9.55477 28.0381 7.96877 27.0692 7.46777C27.8578 9.01753 28.314 10.572 28.4884 11.7318V11.7605C29.8114 15.3546 29.0904 19.0095 28.0521 21.2426C26.4456 24.6976 22.5567 28.239 16.4686 28.0666C9.89644 27.8795 4.10238 22.9859 3.02033 16.5816C2.82317 15.5709 3.02033 15.0582 3.11949 14.238C2.99875 14.8699 2.95266 15.0529 2.89258 16.1765V16.2484C2.89258 24.0072 9.16905 30.2974 16.9108 30.2974C23.8446 30.2974 29.6014 25.2523 30.7289 18.6254C30.7522 18.4459 30.7715 18.2647 30.7925 18.0835C31.0696 15.6738 30.7598 13.1413 29.8813 11.0239Z" fill="url(#paint2_radial_1_1543)"/>
<path id="Vector_4" d="M23.0682 12.6746C23.0991 12.6962 23.1265 12.7179 23.1557 12.7395C22.8039 12.1134 22.3655 11.5403 21.8537 11.0372C17.4964 6.67028 20.7116 1.56794 21.2535 1.30838L21.2593 1.30078C17.7379 3.36791 16.5432 7.19174 16.4336 9.10512C16.5969 9.09401 16.7596 9.07998 16.9259 9.07998C19.5537 9.07998 21.8426 10.5286 23.0682 12.6746Z" fill="url(#paint3_radial_1_1543)"/>
<path id="Vector_5" d="M16.9352 13.5467C16.9125 13.8975 15.6805 15.1018 15.2495 15.1018C11.2631 15.1018 10.6162 17.5185 10.6162 17.5185C10.7912 19.554 12.2063 21.2301 13.9183 22.1169C13.9965 22.1572 14.0752 22.1935 14.1517 22.2297C14.2887 22.2882 14.4264 22.3466 14.5635 22.3987C15.1506 22.6062 15.7654 22.7244 16.3875 22.7494C23.3744 23.078 24.7289 14.3769 19.6861 11.8503C20.977 11.6252 22.3175 12.1461 23.0659 12.6728C21.8409 10.5267 19.5514 9.07812 16.9236 9.07812C16.7573 9.07812 16.5946 9.09216 16.4312 9.10326C15.0251 9.2009 13.6809 9.72078 12.5738 10.5951C12.7879 10.7769 13.0294 11.019 13.5374 11.5205C14.4906 12.4629 16.93 13.4327 16.9352 13.5467Z" fill="url(#paint4_radial_1_1543)"/>
<path id="Vector_6" d="M16.9352 13.5467C16.9125 13.8975 15.6805 15.1018 15.2495 15.1018C11.2631 15.1018 10.6162 17.5185 10.6162 17.5185C10.7912 19.554 12.2063 21.2301 13.9183 22.1169C13.9965 22.1572 14.0752 22.1935 14.1517 22.2297C14.2887 22.2882 14.4264 22.3466 14.5635 22.3987C15.1506 22.6062 15.7654 22.7244 16.3875 22.7494C23.3744 23.078 24.7289 14.3769 19.6861 11.8503C20.977 11.6252 22.3175 12.1461 23.0659 12.6728C21.8409 10.5267 19.5514 9.07812 16.9236 9.07812C16.7573 9.07812 16.5946 9.09216 16.4312 9.10326C15.0251 9.2009 13.6809 9.72078 12.5738 10.5951C12.7879 10.7769 13.0294 11.019 13.5374 11.5205C14.4906 12.4629 16.93 13.4327 16.9352 13.5467Z" fill="url(#paint5_radial_1_1543)"/>
<path id="Vector_7" d="M11.9217 10.1283C12.0354 10.2019 12.1288 10.2639 12.2133 10.3207C11.894 9.20011 11.8805 8.01424 12.1743 6.88672C10.7341 7.54438 9.61411 8.58204 8.7998 9.50044C8.86571 9.49868 10.8991 9.46185 11.9217 10.1283Z" fill="url(#paint6_radial_1_1543)"/>
<path id="Vector_8" d="M3.02033 16.5814C4.10238 22.9856 9.89644 27.8792 16.4733 28.0663C22.5613 28.2388 26.448 24.6973 28.0567 21.2423C29.095 19.0086 29.816 15.3543 28.4931 11.7602V11.7333C28.4931 11.7368 28.4931 11.7415 28.496 11.7567C28.993 15.0111 27.3416 18.1639 24.7598 20.2959C24.7572 20.3019 24.7547 20.3079 24.7523 20.314C19.7212 24.4196 14.9071 22.7909 13.9324 22.1262C13.8647 22.0935 13.7965 22.0596 13.7288 22.0245C10.7953 20.6215 9.58379 17.9411 9.84336 15.6443C7.36719 15.6443 6.52255 13.5502 6.52255 13.5502C6.52255 13.5502 8.74615 11.9613 11.6767 13.3433C14.3909 14.6236 16.9399 13.5502 16.9399 13.5502C16.9347 13.4363 14.4953 12.4635 13.5439 11.524C13.0358 11.0225 12.7943 10.7804 12.5802 10.5986C12.4644 10.5005 12.3433 10.4087 12.2174 10.3239C12.134 10.2655 12.0424 10.207 11.9258 10.1316C10.9032 9.46514 8.86981 9.50197 8.80273 9.50372H8.79631C8.24041 8.79812 8.27949 6.47085 8.31099 5.98505C8.30458 5.95465 7.89684 6.19726 7.84434 6.23409C7.35381 6.58479 6.89528 6.9784 6.47414 7.41029C5.99489 7.89724 5.55705 8.42345 5.16518 8.98343C4.26361 10.2639 3.62423 11.7108 3.28399 13.2404C3.27291 13.2673 2.77417 15.4496 3.02033 16.5814Z" fill="url(#paint7_radial_1_1543)"/>
<path id="Vector_9" d="M21.854 11.0368C22.3658 11.54 22.8041 12.1131 23.1559 12.7392C23.2289 12.794 23.2989 12.8526 23.3659 12.9145C26.5438 15.8469 24.8814 19.9981 24.7548 20.2962C27.3366 18.1642 28.9879 15.0115 28.4909 11.757C26.9061 7.79465 24.2182 6.19753 22.0231 2.72095C21.9117 2.54557 21.8009 2.37019 21.6924 2.18254C21.6312 2.07673 21.5816 1.98085 21.5384 1.89024C21.4475 1.71445 21.3772 1.52867 21.329 1.33663C21.3294 1.32751 21.3264 1.31857 21.3206 1.31155C21.3147 1.30453 21.3065 1.29993 21.2975 1.29863C21.2889 1.29629 21.2799 1.29629 21.2713 1.29863C21.2689 1.29969 21.2668 1.30107 21.2648 1.30272C21.2613 1.30272 21.2578 1.30682 21.2543 1.30798C20.7119 1.56754 17.4966 6.66989 21.854 11.0368Z" fill="url(#paint8_radial_1_1543)"/>
<path id="Vector_10" d="M23.3649 12.9115C23.2979 12.8496 23.2278 12.791 23.1549 12.7362C23.1263 12.7145 23.0966 12.6929 23.0674 12.6713C22.319 12.1451 20.9786 11.6237 19.6877 11.8487C24.7299 14.3754 23.376 23.0765 16.3891 22.7479C15.767 22.7229 15.1522 22.6047 14.565 22.3972C14.428 22.3457 14.2903 22.289 14.1532 22.2282C14.0739 22.192 13.9951 22.1557 13.9199 22.1154L13.9292 22.1212C14.9039 22.7877 19.718 24.4164 24.7491 20.309C24.7491 20.309 24.752 20.3014 24.7567 20.2909C24.8815 19.998 26.544 15.8468 23.3649 12.9115Z" fill="url(#paint9_radial_1_1543)"/>
<path id="Vector_11" d="M10.6159 17.5179C10.6159 17.5179 11.2628 15.1012 15.2492 15.1012C15.6803 15.1012 16.9122 13.8957 16.935 13.5462C16.9577 13.1966 14.3859 14.6195 11.6717 13.3392C8.74118 11.9572 6.51758 13.5462 6.51758 13.5462C6.51758 13.5462 7.36222 15.6402 9.83839 15.6402C9.57882 17.937 10.7904 20.6151 13.7238 22.0204C13.7892 22.0514 13.851 22.0859 13.9181 22.1163C12.206 21.2312 10.7927 19.5534 10.6159 17.5179Z" fill="url(#paint10_radial_1_1543)"/>
<path id="Vector_12" d="M29.8811 11.0234C29.2722 9.55428 28.0379 7.96827 27.069 7.46727C27.8576 9.01703 28.3138 10.5715 28.4882 11.7313C28.4882 11.7313 28.4882 11.7395 28.4911 11.7547C26.9062 7.79465 24.2183 6.19753 22.0233 2.72095C21.9119 2.54557 21.8011 2.37019 21.6926 2.18254C21.6313 2.07673 21.5817 1.98085 21.5386 1.89024C21.4476 1.71445 21.3773 1.52867 21.3292 1.33663C21.3296 1.32751 21.3265 1.31857 21.3207 1.31155C21.3149 1.30453 21.3067 1.29993 21.2977 1.29863C21.2891 1.29629 21.28 1.29629 21.2714 1.29863C21.2691 1.29969 21.2669 1.30107 21.265 1.30272C21.2615 1.30272 21.258 1.30682 21.2545 1.30798L21.2603 1.30038C17.7389 3.36751 16.5442 7.19134 16.4346 9.10472C16.5979 9.09361 16.7607 9.07959 16.9269 9.07959C19.5547 9.07959 21.8437 10.5282 23.0692 12.6743C22.3208 12.1481 20.9803 11.6267 19.6895 11.8518C24.7316 14.3784 23.3778 23.0795 16.3908 22.7509C15.7688 22.7259 15.1539 22.6077 14.5668 22.4002C14.4297 22.3487 14.2921 22.292 14.155 22.2312C14.0757 22.195 13.9969 22.1587 13.9217 22.1184L13.931 22.1242C13.8633 22.0915 13.7951 22.0576 13.7274 22.0225C13.7927 22.0535 13.8546 22.088 13.9217 22.1184C12.2061 21.2316 10.7928 19.5538 10.616 17.5182C10.616 17.5182 11.2629 15.1015 15.2493 15.1015C15.6804 15.1015 16.9123 13.8961 16.9351 13.5465C16.9298 13.4325 14.4904 12.4597 13.539 11.5203C13.0309 11.0187 12.7894 10.7767 12.5754 10.5949C12.4595 10.4967 12.3384 10.405 12.2125 10.3201C11.8932 9.19958 11.8797 8.01371 12.1735 6.88619C10.7333 7.54385 9.61333 8.58151 8.79902 9.49991H8.7926C8.2367 8.7943 8.27578 6.46703 8.30728 5.98123C8.30086 5.95083 7.89313 6.19344 7.84063 6.23027C7.3501 6.58098 6.89158 6.97459 6.47043 7.40648C5.99118 7.89343 5.55334 8.41964 5.16147 8.97962C4.2599 10.2601 3.62052 11.707 3.28028 13.2367C3.27387 13.2671 3.26803 13.2986 3.26162 13.3296C3.23537 13.453 3.11636 14.0808 3.10003 14.2153C3.10003 14.2053 3.10003 14.2258 3.10003 14.2153C2.99081 14.864 2.92089 15.5188 2.89062 16.176V16.2479C2.89062 24.0066 9.16708 30.2969 16.9088 30.2969C23.8427 30.2969 29.5994 25.2518 30.727 18.6249C30.7503 18.4454 30.7695 18.2642 30.7905 18.0829C31.0694 15.6732 30.7596 13.1408 29.8811 11.0234Z" fill="url(#paint11_linear_1_1543)"/>
</g>
</g>
<defs>
<linearGradient id="paint0_linear_1_1543" x1="28.0256" y1="5.78949" x2="4.70455" y2="28.2406" gradientUnits="userSpaceOnUse">
<stop offset="0.05" stop-color="#FFF44F"/>
<stop offset="0.11" stop-color="#FFE847"/>
<stop offset="0.22" stop-color="#FFC830"/>
<stop offset="0.37" stop-color="#FF980E"/>
<stop offset="0.4" stop-color="#FF8B16"/>
<stop offset="0.46" stop-color="#FF672A"/>
<stop offset="0.53" stop-color="#FF3647"/>
<stop offset="0.7" stop-color="#E31587"/>
</linearGradient>
<radialGradient id="paint1_radial_1_1543" cx="0" cy="0" r="1" gradientUnits="userSpaceOnUse" gradientTransform="translate(26.9502 4.51615) scale(29.2246 29.2888)">
<stop offset="0.13" stop-color="#FFBD4F"/>
<stop offset="0.19" stop-color="#FFAC31"/>
<stop offset="0.25" stop-color="#FF9D17"/>
<stop offset="0.28" stop-color="#FF980E"/>
<stop offset="0.4" stop-color="#FF563B"/>
<stop offset="0.47" stop-color="#FF3750"/>
<stop offset="0.71" stop-color="#F5156C"/>
<stop offset="0.78" stop-color="#EB0878"/>
<stop offset="0.86" stop-color="#E50080"/>
</radialGradient>
<radialGradient id="paint2_radial_1_1543" cx="0" cy="0" r="1" gradientUnits="userSpaceOnUse" gradientTransform="translate(16.2715 16.4899) scale(29.2246 29.2888)">
<stop offset="0.3" stop-color="#960E18"/>
<stop offset="0.35" stop-color="#B11927" stop-opacity="0.74"/>
<stop offset="0.43" stop-color="#DB293D" stop-opacity="0.34"/>
<stop offset="0.5" stop-color="#F5334B" stop-opacity="0.09"/>
<stop offset="0.53" stop-color="#FF3750" stop-opacity="0"/>
</radialGradient>
<radialGradient id="paint3_radial_1_1543" cx="0" cy="0" r="1" gradientUnits="userSpaceOnUse" gradientTransform="translate(19.7946 -2.13079) scale(21.172 21.2184)">
<stop offset="0.13" stop-color="#FFF44F"/>
<stop offset="0.25" stop-color="#FFDC3E"/>
<stop offset="0.51" stop-color="#FF9D12"/>
<stop offset="0.53" stop-color="#FF980E"/>
</radialGradient>
<radialGradient id="paint4_radial_1_1543" cx="0" cy="0" r="1" gradientUnits="userSpaceOnUse" gradientTransform="translate(13.0393 24.1402) scale(13.915 13.9455)">
<stop offset="0.35" stop-color="#3A8EE6"/>
<stop offset="0.47" stop-color="#5C79F0"/>
<stop offset="0.67" stop-color="#9059FF"/>
<stop offset="1" stop-color="#C139E6"/>
</radialGradient>
<radialGradient id="paint5_radial_1_1543" cx="0" cy="0" r="1" gradientUnits="userSpaceOnUse" gradientTransform="translate(16.6911 13.0087) rotate(-13.9265) scale(7.37316 8.67852)">
<stop offset="0.21" stop-color="#9059FF" stop-opacity="0"/>
<stop offset="0.28" stop-color="#8C4FF3" stop-opacity="0.06"/>
<stop offset="0.75" stop-color="#7716A8" stop-opacity="0.45"/>
<stop offset="0.97" stop-color="#6E008B" stop-opacity="0.6"/>
</radialGradient>
<radialGradient id="paint6_radial_1_1543" cx="0" cy="0" r="1" gradientUnits="userSpaceOnUse" gradientTransform="translate(15.9016 3.31777) scale(10.0108 10.0328)">
<stop stop-color="#FFE226"/>
<stop offset="0.12" stop-color="#FFDB27"/>
<stop offset="0.3" stop-color="#FFC82A"/>
<stop offset="0.5" stop-color="#FFA930"/>
<stop offset="0.73" stop-color="#FF7E37"/>
<stop offset="0.79" stop-color="#FF7139"/>
</radialGradient>
<radialGradient id="paint7_radial_1_1543" cx="0" cy="0" r="1" gradientUnits="userSpaceOnUse" gradientTransform="translate(23.7711 -3.04577) scale(42.7109 42.8046)">
<stop offset="0.11" stop-color="#FFF44F"/>
<stop offset="0.46" stop-color="#FF980E"/>
<stop offset="0.62" stop-color="#FF5634"/>
<stop offset="0.72" stop-color="#FF3647"/>
<stop offset="0.9" stop-color="#E31587"/>
</radialGradient>
<radialGradient id="paint8_radial_1_1543" cx="0" cy="0" r="1" gradientUnits="userSpaceOnUse" gradientTransform="translate(19.6423 1.63062) rotate(84.2447) scale(31.1996 20.4543)">
<stop stop-color="#FFF44F"/>
<stop offset="0.06" stop-color="#FFE847"/>
<stop offset="0.17" stop-color="#FFC830"/>
<stop offset="0.3" stop-color="#FF980E"/>
<stop offset="0.36" stop-color="#FF8B16"/>
<stop offset="0.45" stop-color="#FF672A"/>
<stop offset="0.57" stop-color="#FF3647"/>
<stop offset="0.74" stop-color="#E31587"/>
</radialGradient>
<radialGradient id="paint9_radial_1_1543" cx="0" cy="0" r="1" gradientUnits="userSpaceOnUse" gradientTransform="translate(15.6663 7.03282) scale(26.6644 26.723)">
<stop offset="0.14" stop-color="#FFF44F"/>
<stop offset="0.48" stop-color="#FF980E"/>
<stop offset="0.59" stop-color="#FF5634"/>
<stop offset="0.66" stop-color="#FF3647"/>
<stop offset="0.9" stop-color="#E31587"/>
</radialGradient>
<radialGradient id="paint10_radial_1_1543" cx="0" cy="0" r="1" gradientUnits="userSpaceOnUse" gradientTransform="translate(22.7051 8.59698) scale(29.1844 29.2484)">
<stop offset="0.09" stop-color="#FFF44F"/>
<stop offset="0.23" stop-color="#FFE141"/>
<stop offset="0.51" stop-color="#FFAF1E"/>
<stop offset="0.63" stop-color="#FF980E"/>
</radialGradient>
<linearGradient id="paint11_linear_1_1543" x1="27.7456" y1="5.66906" x2="7.90105" y2="25.4708" gradientUnits="userSpaceOnUse">
<stop offset="0.17" stop-color="#FFF44F" stop-opacity="0.8"/>
<stop offset="0.27" stop-color="#FFF44F" stop-opacity="0.63"/>
<stop offset="0.49" stop-color="#FFF44F" stop-opacity="0.22"/>
<stop offset="0.6" stop-color="#FFF44F" stop-opacity="0"/>
</linearGradient>
</defs>
</svg>
