<svg width="33" height="33" viewBox="0 0 33 33" fill="none" xmlns="http://www.w3.org/2000/svg">
<g id="623993f7f316103b04e86f43_apple.svg">
<g id="Group" style="mix-blend-mode:luminosity">
<path id="Vector" d="M26.1203 11.3812C26.0026 11.4499 23.2022 12.8982 23.2022 16.1094C23.3341 19.7716 26.7362 21.0559 26.7946 21.0559C26.7362 21.1245 26.281 22.8054 24.9324 24.5674C23.8621 26.0852 22.6742 27.6155 20.8703 27.6155C19.1545 27.6155 18.5385 26.604 16.5587 26.604C14.4325 26.604 13.8309 27.6155 12.203 27.6155C10.3991 27.6155 9.12328 26.0033 7.99467 24.4997C6.52844 22.5318 5.28219 19.4436 5.23819 16.4783C5.20854 14.9071 5.53182 13.3625 6.35245 12.0506C7.51071 10.219 9.57855 8.97573 11.8367 8.93473C13.5669 8.88036 15.1068 10.0417 16.1627 10.0417C17.1746 10.0417 19.0665 8.93473 21.207 8.93473C22.1309 8.93562 24.5947 9.19498 26.1203 11.3812ZM16.0164 8.621C15.7084 7.18607 16.5587 5.75114 17.3506 4.83582C18.3625 3.72887 19.9608 2.97754 21.339 2.97754C21.427 4.41247 20.8694 5.81977 19.8728 6.84472C18.9785 7.95167 17.4386 8.785 16.0164 8.621Z" fill="white"/>
</g>
</g>
</svg>
