<svg width="18" height="18" viewBox="0 0 18 18" fill="none" xmlns="http://www.w3.org/2000/svg">
<g id="Frame">
<g id="Group">
<path id="Vector" d="M2.7153 2.5H0.109375V0.5H4.50345L4.95226 4.5H16.1094V10.4384L3.87878 12.8694L2.7153 2.5ZM15.6094 17.5C14.7809 17.5 14.1094 16.8284 14.1094 16C14.1094 15.1716 14.7809 14.5 15.6094 14.5C16.4378 14.5 17.1094 15.1716 17.1094 16C17.1094 16.8284 16.4378 17.5 15.6094 17.5ZM5.60938 17.5C4.78095 17.5 4.10938 16.8284 4.10938 16C4.10938 15.1716 4.78095 14.5 5.60938 14.5C6.4378 14.5 7.10938 15.1716 7.10938 16C7.10938 16.8284 6.4378 17.5 5.60938 17.5Z" fill="black"/>
</g>
</g>
</svg>
