<svg width="32" height="32" viewBox="0 0 32 32" fill="none" xmlns="http://www.w3.org/2000/svg">
<g id="623cac6366ae86422aabe738_Apple%20Black.svg">
<g id="Group" style="mix-blend-mode:luminosity">
<path id="Vector" d="M25.6516 11.2336C25.5376 11.3001 22.822 12.7045 22.822 15.8184C22.95 19.3696 26.249 20.615 26.3055 20.615C26.249 20.6816 25.8075 22.3116 24.4997 24.0202C23.4619 25.492 22.31 26.9759 20.5608 26.9759C18.8969 26.9759 18.2996 25.995 16.3798 25.995C14.318 25.995 13.7346 26.9759 12.1561 26.9759C10.4069 26.9759 9.16967 25.4125 8.07526 23.9545C6.65347 22.0463 5.44498 19.0517 5.40231 16.1762C5.37356 14.6525 5.68705 13.1548 6.48281 11.8826C7.60597 10.1066 9.61115 8.90095 11.8009 8.8612C13.4786 8.80848 14.9719 9.9346 15.9958 9.9346C16.9771 9.9346 18.8116 8.8612 20.8872 8.8612C21.7832 8.86207 24.1724 9.11356 25.6516 11.2336ZM15.8539 8.55698C15.5552 7.16553 16.3798 5.77409 17.1477 4.8865C18.129 3.8131 19.6788 3.08453 21.0152 3.08453C21.1006 4.47598 20.5599 5.84064 19.5935 6.83453C18.7263 7.90793 17.233 8.716 15.8539 8.55698Z" fill="black"/>
</g>
</g>
</svg>
