<svg width="33" height="32" viewBox="0 0 33 32" fill="none" xmlns="http://www.w3.org/2000/svg">
<g id="623993f77547cffa504179a5_firefox.svg">
<g id="Group" style="mix-blend-mode:luminosity">
<path id="Vector" d="M29.2561 10.7265C28.6472 9.2574 27.4129 7.67139 26.444 7.17039C27.2326 8.72015 27.6888 10.2746 27.8632 11.4344C27.8632 11.4344 27.8632 11.4426 27.8661 11.4578C26.2812 7.49777 23.5933 5.90065 21.3983 2.42407C21.2869 2.24869 21.1761 2.07331 21.0676 1.88566C21.0063 1.77985 20.9567 1.68397 20.9136 1.59336C20.8226 1.41757 20.7523 1.23179 20.7042 1.03975C20.7046 1.03063 20.7015 1.02169 20.6957 1.01467C20.6899 1.00765 20.6817 1.00305 20.6727 1.00175C20.6641 0.999416 20.655 0.999416 20.6464 1.00175C20.6441 1.00281 20.6419 1.00419 20.64 1.00584C20.6365 1.00584 20.633 1.00994 20.6295 1.0111L20.6353 1.0035C17.1139 3.07063 15.9192 6.89446 15.8096 8.80784C14.4024 8.90428 13.0569 9.42358 11.9486 10.298C11.8328 10.1998 11.7117 10.1081 11.5858 10.0232C11.2664 8.9027 11.2529 7.71683 11.5467 6.58931C10.1065 7.24697 8.98658 8.28463 8.17227 9.20303H8.16585C7.60995 8.49742 7.64903 6.17015 7.68053 5.68435C7.67411 5.65395 7.26638 5.89656 7.21388 5.93339C6.72335 6.2841 6.26483 6.67771 5.84368 7.1096C5.36443 7.59655 4.92659 8.12276 4.53472 8.68274C3.63315 9.96323 2.99377 11.4101 2.65353 12.9398C2.64712 12.9702 2.64128 13.0017 2.63487 13.0327C2.60862 13.1561 2.51353 13.7751 2.49661 13.9096V13.9406C2.37266 14.5803 2.29546 15.2282 2.26562 15.8791V15.951C2.26562 23.7097 8.54208 30 16.2838 30C23.2177 30 28.9744 24.9549 30.102 18.328C30.1253 18.1485 30.1445 17.9673 30.1655 17.786C30.4444 15.3763 30.1346 12.8439 29.2561 10.7265ZM13.0983 21.7239C13.1637 21.7549 13.2255 21.7894 13.2926 21.8198L13.3019 21.8256C13.2348 21.7929 13.166 21.759 13.0983 21.7239ZM27.8673 11.4642V11.4508V11.466V11.4642Z" fill="url(#paint0_linear_1_756)"/>
<path id="Vector_2" d="M29.2563 10.7265C28.6474 9.25741 27.4131 7.67141 26.4442 7.17041C27.2328 8.72017 27.689 10.2746 27.8634 11.4344V11.4631C29.1864 15.0572 28.4654 18.7121 27.4271 20.9452C25.8206 24.4002 21.9317 27.9416 15.8436 27.7692C9.27144 27.5821 3.47738 22.6885 2.39533 16.2842C2.19817 15.2735 2.39533 14.7608 2.49449 13.9406C2.37375 14.5725 2.32766 14.7555 2.26758 15.8791V15.951C2.26758 23.7098 8.54405 30 16.2858 30C23.2196 30 28.9764 24.9549 30.1039 18.328C30.1272 18.1485 30.1465 17.9673 30.1675 17.7861C30.4446 15.3764 30.1348 12.8439 29.2563 10.7265Z" fill="url(#paint1_radial_1_756)"/>
<path id="Vector_3" d="M29.2563 10.7265C28.6474 9.25741 27.4131 7.67141 26.4442 7.17041C27.2328 8.72017 27.689 10.2746 27.8634 11.4344V11.4631C29.1864 15.0572 28.4654 18.7121 27.4271 20.9452C25.8206 24.4002 21.9317 27.9416 15.8436 27.7692C9.27144 27.5821 3.47738 22.6885 2.39533 16.2842C2.19817 15.2735 2.39533 14.7608 2.49449 13.9406C2.37375 14.5725 2.32766 14.7555 2.26758 15.8791V15.951C2.26758 23.7098 8.54405 30 16.2858 30C23.2196 30 28.9764 24.9549 30.1039 18.328C30.1272 18.1485 30.1465 17.9673 30.1675 17.7861C30.4446 15.3764 30.1348 12.8439 29.2563 10.7265Z" fill="url(#paint2_radial_1_756)"/>
<path id="Vector_4" d="M22.4432 12.3774C22.4741 12.399 22.5015 12.4207 22.5307 12.4423C22.1789 11.8162 21.7405 11.2431 21.2287 10.74C16.8714 6.37304 20.0866 1.2707 20.6285 1.01114L20.6343 1.00354C17.1129 3.07067 15.9182 6.8945 15.8086 8.80788C15.9719 8.79677 16.1346 8.78274 16.3009 8.78274C18.9287 8.78274 21.2176 10.2314 22.4432 12.3774Z" fill="url(#paint3_radial_1_756)"/>
<path id="Vector_5" d="M16.3102 13.2496C16.2875 13.6004 15.0555 14.8047 14.6245 14.8047C10.6381 14.8047 9.99121 17.2214 9.99121 17.2214C10.1662 19.2569 11.5813 20.933 13.2933 21.8198C13.3715 21.8601 13.4502 21.8964 13.5267 21.9326C13.6637 21.9911 13.8014 22.0495 13.9385 22.1016C14.5256 22.3091 15.1404 22.4273 15.7625 22.4523C22.7494 22.7809 24.1039 14.0798 19.0611 11.5532C20.352 11.3281 21.6925 11.849 22.4409 12.3757C21.2159 10.2296 18.9264 8.78101 16.2986 8.78101C16.1323 8.78101 15.9696 8.79504 15.8062 8.80614C14.4001 8.90378 13.0559 9.42366 11.9488 10.298C12.1629 10.4798 12.4044 10.7219 12.9124 11.2234C13.8656 12.1658 16.305 13.1356 16.3102 13.2496Z" fill="url(#paint4_radial_1_756)"/>
<path id="Vector_6" d="M16.3102 13.2496C16.2875 13.6004 15.0555 14.8047 14.6245 14.8047C10.6381 14.8047 9.99121 17.2214 9.99121 17.2214C10.1662 19.2569 11.5813 20.933 13.2933 21.8198C13.3715 21.8601 13.4502 21.8964 13.5267 21.9326C13.6637 21.9911 13.8014 22.0495 13.9385 22.1016C14.5256 22.3091 15.1404 22.4273 15.7625 22.4523C22.7494 22.7809 24.1039 14.0798 19.0611 11.5532C20.352 11.3281 21.6925 11.849 22.4409 12.3757C21.2159 10.2296 18.9264 8.78101 16.2986 8.78101C16.1323 8.78101 15.9696 8.79504 15.8062 8.80614C14.4001 8.90378 13.0559 9.42366 11.9488 10.298C12.1629 10.4798 12.4044 10.7219 12.9124 11.2234C13.8656 12.1658 16.305 13.1356 16.3102 13.2496Z" fill="url(#paint5_radial_1_756)"/>
<path id="Vector_7" d="M11.2967 9.83092C11.4104 9.90458 11.5038 9.96656 11.5883 10.0233C11.269 8.90275 11.2555 7.71688 11.5493 6.58936C10.1091 7.24702 8.98911 8.28468 8.1748 9.20308C8.24071 9.20132 10.2741 9.16448 11.2967 9.83092Z" fill="url(#paint6_radial_1_756)"/>
<path id="Vector_8" d="M2.39533 16.2842C3.47738 22.6884 9.27144 27.582 15.8483 27.7691C21.9363 27.9416 25.823 24.4001 27.4317 20.9451C28.47 18.7114 29.191 15.0571 27.8681 11.463V11.4361C27.8681 11.4396 27.8681 11.4443 27.871 11.4595C28.368 14.7139 26.7166 17.8667 24.1348 19.9987C24.1322 20.0047 24.1297 20.0107 24.1273 20.0168C19.0962 24.1224 14.2821 22.4937 13.3074 21.829C13.2397 21.7963 13.1715 21.7624 13.1038 21.7273C10.1703 20.3243 8.95879 17.6439 9.21836 15.3471C6.74219 15.3471 5.89755 13.253 5.89755 13.253C5.89755 13.253 8.12115 11.6641 11.0517 13.0461C13.7659 14.3264 16.3149 13.253 16.3149 13.253C16.3097 13.1391 13.8703 12.1663 12.9189 11.2268C12.4108 10.7253 12.1693 10.4832 11.9552 10.3014C11.8394 10.2033 11.7183 10.1115 11.5924 10.0267C11.509 9.96821 11.4174 9.90975 11.3008 9.83434C10.2782 9.1679 8.24481 9.20473 8.17773 9.20648H8.17131C7.61541 8.50088 7.65449 6.17361 7.68599 5.68781C7.67958 5.65741 7.27184 5.90002 7.21934 5.93685C6.72881 6.28755 6.27028 6.68116 5.84914 7.11305C5.36989 7.6 4.93205 8.12621 4.54018 8.68619C3.63861 9.96669 2.99923 11.4136 2.65899 12.9432C2.64791 12.9701 2.14917 15.1524 2.39533 16.2842Z" fill="url(#paint7_radial_1_756)"/>
<path id="Vector_9" d="M21.229 10.7399C21.7408 11.2431 22.1791 11.8162 22.5309 12.4423C22.6039 12.4971 22.6739 12.5557 22.7409 12.6176C25.9188 15.55 24.2564 19.7012 24.1298 19.9993C26.7116 17.8673 28.3629 14.7146 27.8659 11.4601C26.2811 7.49777 23.5932 5.90065 21.3981 2.42407C21.2867 2.24869 21.1759 2.07331 21.0674 1.88566C21.0062 1.77985 20.9566 1.68397 20.9134 1.59336C20.8225 1.41757 20.7522 1.23179 20.704 1.03975C20.7044 1.03063 20.7014 1.02169 20.6956 1.01467C20.6897 1.00765 20.6815 1.00305 20.6725 1.00175C20.6639 0.999416 20.6549 0.999416 20.6463 1.00175C20.6439 1.00281 20.6418 1.00419 20.6398 1.00584C20.6363 1.00584 20.6328 1.00994 20.6293 1.0111C20.0869 1.27066 16.8716 6.37301 21.229 10.7399Z" fill="url(#paint8_radial_1_756)"/>
<path id="Vector_10" d="M22.7399 12.6147C22.6729 12.5528 22.6028 12.4942 22.5299 12.4394C22.5013 12.4177 22.4716 12.3961 22.4424 12.3745C21.694 11.8483 20.3536 11.3269 19.0627 11.5519C24.1049 14.0786 22.751 22.7797 15.7641 22.4511C15.142 22.4261 14.5272 22.3079 13.94 22.1004C13.803 22.0489 13.6653 21.9922 13.5282 21.9314C13.4489 21.8952 13.3701 21.8589 13.2949 21.8186L13.3042 21.8244C14.2789 22.4909 19.093 24.1196 24.1241 20.0122C24.1241 20.0122 24.127 20.0046 24.1317 19.9941C24.2565 19.7012 25.919 15.55 22.7399 12.6147Z" fill="url(#paint9_radial_1_756)"/>
<path id="Vector_11" d="M9.99095 17.2214C9.99095 17.2214 10.6378 14.8047 14.6242 14.8047C15.0553 14.8047 16.2872 13.5992 16.31 13.2497C16.3327 12.9001 13.7609 14.323 11.0467 13.0427C8.11618 11.6607 5.89258 13.2497 5.89258 13.2497C5.89258 13.2497 6.73722 15.3437 9.21339 15.3437C8.95382 17.6405 10.1654 20.3186 13.0988 21.7239C13.1642 21.7549 13.226 21.7894 13.2931 21.8198C11.581 20.9347 10.1677 19.2569 9.99095 17.2214Z" fill="url(#paint10_radial_1_756)"/>
<path id="Vector_12" d="M29.2561 10.7265C28.6472 9.2574 27.4129 7.67139 26.444 7.17039C27.2326 8.72015 27.6888 10.2746 27.8632 11.4344C27.8632 11.4344 27.8632 11.4426 27.8661 11.4578C26.2812 7.49777 23.5933 5.90065 21.3983 2.42407C21.2869 2.24869 21.1761 2.07331 21.0676 1.88566C21.0063 1.77985 20.9567 1.68397 20.9136 1.59336C20.8226 1.41757 20.7523 1.23179 20.7042 1.03975C20.7046 1.03063 20.7015 1.02169 20.6957 1.01467C20.6899 1.00765 20.6817 1.00305 20.6727 1.00175C20.6641 0.999416 20.655 0.999416 20.6464 1.00175C20.6441 1.00281 20.6419 1.00419 20.64 1.00584C20.6365 1.00584 20.633 1.00994 20.6295 1.0111L20.6353 1.0035C17.1139 3.07063 15.9192 6.89446 15.8096 8.80784C15.9729 8.79673 16.1357 8.78271 16.3019 8.78271C18.9297 8.78271 21.2187 10.2313 22.4442 12.3774C21.6958 11.8512 20.3553 11.3298 19.0645 11.5549C24.1066 14.0815 22.7528 22.7826 15.7658 22.454C15.1438 22.429 14.5289 22.3108 13.9418 22.1033C13.8047 22.0518 13.6671 21.9951 13.53 21.9343C13.4507 21.8981 13.3719 21.8618 13.2967 21.8215L13.306 21.8273C13.2383 21.7946 13.1701 21.7607 13.1024 21.7256C13.1677 21.7566 13.2296 21.7911 13.2967 21.8215C11.5811 20.9347 10.1678 19.2569 9.99104 17.2213C9.99104 17.2213 10.6379 14.8046 14.6243 14.8046C15.0554 14.8046 16.2873 13.5992 16.3101 13.2496C16.3048 13.1356 13.8654 12.1628 12.914 11.2234C12.4059 10.7218 12.1644 10.4798 11.9504 10.298C11.8345 10.1998 11.7134 10.1081 11.5875 10.0232C11.2682 8.9027 11.2547 7.71683 11.5485 6.58931C10.1083 7.24697 8.98833 8.28463 8.17402 9.20303H8.1676C7.6117 8.49742 7.65078 6.17015 7.68228 5.68435C7.67586 5.65395 7.26813 5.89656 7.21563 5.93339C6.7251 6.2841 6.26658 6.67771 5.84543 7.1096C5.36618 7.59655 4.92834 8.12276 4.53647 8.68274C3.6349 9.96323 2.99552 11.4101 2.65528 12.9398C2.64887 12.9702 2.64303 13.0017 2.63662 13.0327C2.61037 13.1561 2.49136 13.7839 2.47503 13.9184C2.47503 13.9084 2.47503 13.9289 2.47503 13.9184C2.36581 14.5671 2.29589 15.2219 2.26562 15.8791V15.951C2.26562 23.7097 8.54208 30 16.2838 30C23.2177 30 28.9744 24.9549 30.102 18.328C30.1253 18.1485 30.1445 17.9673 30.1655 17.786C30.4444 15.3763 30.1346 12.8439 29.2561 10.7265Z" fill="url(#paint11_linear_1_756)"/>
</g>
</g>
<defs>
<linearGradient id="paint0_linear_1_756" x1="27.4006" y1="5.49261" x2="4.07955" y2="27.9437" gradientUnits="userSpaceOnUse">
<stop offset="0.05" stop-color="#FFF44F"/>
<stop offset="0.11" stop-color="#FFE847"/>
<stop offset="0.22" stop-color="#FFC830"/>
<stop offset="0.37" stop-color="#FF980E"/>
<stop offset="0.4" stop-color="#FF8B16"/>
<stop offset="0.46" stop-color="#FF672A"/>
<stop offset="0.53" stop-color="#FF3647"/>
<stop offset="0.7" stop-color="#E31587"/>
</linearGradient>
<radialGradient id="paint1_radial_1_756" cx="0" cy="0" r="1" gradientUnits="userSpaceOnUse" gradientTransform="translate(26.3252 4.21879) scale(29.2246 29.2888)">
<stop offset="0.13" stop-color="#FFBD4F"/>
<stop offset="0.19" stop-color="#FFAC31"/>
<stop offset="0.25" stop-color="#FF9D17"/>
<stop offset="0.28" stop-color="#FF980E"/>
<stop offset="0.4" stop-color="#FF563B"/>
<stop offset="0.47" stop-color="#FF3750"/>
<stop offset="0.71" stop-color="#F5156C"/>
<stop offset="0.78" stop-color="#EB0878"/>
<stop offset="0.86" stop-color="#E50080"/>
</radialGradient>
<radialGradient id="paint2_radial_1_756" cx="0" cy="0" r="1" gradientUnits="userSpaceOnUse" gradientTransform="translate(15.6465 16.1925) scale(29.2246 29.2888)">
<stop offset="0.3" stop-color="#960E18"/>
<stop offset="0.35" stop-color="#B11927" stop-opacity="0.74"/>
<stop offset="0.43" stop-color="#DB293D" stop-opacity="0.34"/>
<stop offset="0.5" stop-color="#F5334B" stop-opacity="0.09"/>
<stop offset="0.53" stop-color="#FF3750" stop-opacity="0"/>
</radialGradient>
<radialGradient id="paint3_radial_1_756" cx="0" cy="0" r="1" gradientUnits="userSpaceOnUse" gradientTransform="translate(19.1696 -2.42803) scale(21.172 21.2184)">
<stop offset="0.13" stop-color="#FFF44F"/>
<stop offset="0.25" stop-color="#FFDC3E"/>
<stop offset="0.51" stop-color="#FF9D12"/>
<stop offset="0.53" stop-color="#FF980E"/>
</radialGradient>
<radialGradient id="paint4_radial_1_756" cx="0" cy="0" r="1" gradientUnits="userSpaceOnUse" gradientTransform="translate(12.4143 23.8431) scale(13.915 13.9455)">
<stop offset="0.35" stop-color="#3A8EE6"/>
<stop offset="0.47" stop-color="#5C79F0"/>
<stop offset="0.67" stop-color="#9059FF"/>
<stop offset="1" stop-color="#C139E6"/>
</radialGradient>
<radialGradient id="paint5_radial_1_756" cx="0" cy="0" r="1" gradientUnits="userSpaceOnUse" gradientTransform="translate(16.0661 12.7116) rotate(-13.9265) scale(7.37316 8.67852)">
<stop offset="0.21" stop-color="#9059FF" stop-opacity="0"/>
<stop offset="0.28" stop-color="#8C4FF3" stop-opacity="0.06"/>
<stop offset="0.75" stop-color="#7716A8" stop-opacity="0.45"/>
<stop offset="0.97" stop-color="#6E008B" stop-opacity="0.6"/>
</radialGradient>
<radialGradient id="paint6_radial_1_756" cx="0" cy="0" r="1" gradientUnits="userSpaceOnUse" gradientTransform="translate(15.2766 3.02041) scale(10.0108 10.0328)">
<stop stop-color="#FFE226"/>
<stop offset="0.12" stop-color="#FFDB27"/>
<stop offset="0.3" stop-color="#FFC82A"/>
<stop offset="0.5" stop-color="#FFA930"/>
<stop offset="0.73" stop-color="#FF7E37"/>
<stop offset="0.79" stop-color="#FF7139"/>
</radialGradient>
<radialGradient id="paint7_radial_1_756" cx="0" cy="0" r="1" gradientUnits="userSpaceOnUse" gradientTransform="translate(23.1461 -3.34301) scale(42.7109 42.8046)">
<stop offset="0.11" stop-color="#FFF44F"/>
<stop offset="0.46" stop-color="#FF980E"/>
<stop offset="0.62" stop-color="#FF5634"/>
<stop offset="0.72" stop-color="#FF3647"/>
<stop offset="0.9" stop-color="#E31587"/>
</radialGradient>
<radialGradient id="paint8_radial_1_756" cx="0" cy="0" r="1" gradientUnits="userSpaceOnUse" gradientTransform="translate(19.0173 1.33374) rotate(84.2447) scale(31.1996 20.4543)">
<stop stop-color="#FFF44F"/>
<stop offset="0.06" stop-color="#FFE847"/>
<stop offset="0.17" stop-color="#FFC830"/>
<stop offset="0.3" stop-color="#FF980E"/>
<stop offset="0.36" stop-color="#FF8B16"/>
<stop offset="0.45" stop-color="#FF672A"/>
<stop offset="0.57" stop-color="#FF3647"/>
<stop offset="0.74" stop-color="#E31587"/>
</radialGradient>
<radialGradient id="paint9_radial_1_756" cx="0" cy="0" r="1" gradientUnits="userSpaceOnUse" gradientTransform="translate(15.0413 6.73606) scale(26.6644 26.723)">
<stop offset="0.14" stop-color="#FFF44F"/>
<stop offset="0.48" stop-color="#FF980E"/>
<stop offset="0.59" stop-color="#FF5634"/>
<stop offset="0.66" stop-color="#FF3647"/>
<stop offset="0.9" stop-color="#E31587"/>
</radialGradient>
<radialGradient id="paint10_radial_1_756" cx="0" cy="0" r="1" gradientUnits="userSpaceOnUse" gradientTransform="translate(22.0801 8.30047) scale(29.1844 29.2484)">
<stop offset="0.09" stop-color="#FFF44F"/>
<stop offset="0.23" stop-color="#FFE141"/>
<stop offset="0.51" stop-color="#FFAF1E"/>
<stop offset="0.63" stop-color="#FF980E"/>
</radialGradient>
<linearGradient id="paint11_linear_1_756" x1="27.1206" y1="5.37218" x2="7.27605" y2="25.1739" gradientUnits="userSpaceOnUse">
<stop offset="0.17" stop-color="#FFF44F" stop-opacity="0.8"/>
<stop offset="0.27" stop-color="#FFF44F" stop-opacity="0.63"/>
<stop offset="0.49" stop-color="#FFF44F" stop-opacity="0.22"/>
<stop offset="0.6" stop-color="#FFF44F" stop-opacity="0"/>
</linearGradient>
</defs>
</svg>
