<svg width="29" height="30" viewBox="0 0 29 30" fill="none" xmlns="http://www.w3.org/2000/svg">
<g id="623993f833d837c57c5950e4_linux.svg">
<g id="Group" style="mix-blend-mode:luminosity">
<path id="Vector" d="M26.8896 15C26.8896 21.7658 21.4047 27.2568 14.6328 27.2568C7.86091 27.2568 2.37598 21.7658 2.37598 15C2.37598 8.2281 7.86091 2.74316 14.6328 2.74316C21.4047 2.74316 26.8896 8.2281 26.8896 15Z" fill="white"/>
<path id="Vector_2" d="M10.5235 20.1741C10.4138 20.0106 10.3179 19.7901 10.24 19.5262C8.83333 17.9399 9.91998 15.6055 10.9948 14.0203C11.0979 13.8508 11.2101 13.6871 11.3321 13.5305C12.1522 12.5116 12.3643 11.8025 12.4275 10.8433C12.435 10.6647 12.4202 10.4283 12.4032 10.1566C12.3165 8.76977 12.1723 6.46552 14.6467 6.26123C17.7398 6.00584 17.4879 8.84624 17.465 10.5116C17.4641 10.5805 17.4631 10.6475 17.4625 10.7122C17.4541 11.716 17.978 12.4034 18.5248 13.1208C18.7245 13.3828 18.9273 13.6488 19.1083 13.9357C19.1137 13.9442 19.119 13.9527 19.1243 13.9612C20.0799 15.3394 21.0234 17.3962 19.7102 19.3471C19.5257 20.013 19.2462 20.6241 18.8732 21.1215C17.5338 22.884 16.3434 22.705 15.4138 22.5653C15.1333 22.5232 14.8766 22.4846 14.6467 22.5039C14.2649 22.5272 13.9588 22.5889 13.6944 22.6423C12.6724 22.8486 12.273 22.9292 10.5235 20.1741Z" fill="black"/>
<path id="Vector_3" d="M16.396 7.81639C16.3673 8.63269 15.5014 9.34174 14.4634 9.40729C13.4254 9.47283 12.6111 8.85315 12.6398 8.03685C12.6684 7.22055 13.5343 6.51149 14.5723 6.44595C15.6103 6.38637 16.4246 7.00008 16.396 7.81639Z" fill="url(#paint0_linear_1_573)"/>
<path id="Vector_4" fill-rule="evenodd" clip-rule="evenodd" d="M14.5152 9.80059C14.5235 10.2445 14.7268 10.623 15.0123 10.7939C14.0809 10.7105 12.9267 11.051 12.9267 11.6954C12.9124 12.7856 12.3056 14.1419 11.8689 15.1181C11.7829 15.3104 11.7035 15.4879 11.6364 15.6459C11.3661 16.3154 11.2038 17.0313 11.1847 17.7337C10.4686 16.7466 10.9889 15.4804 11.2694 14.9309C11.6427 14.2076 11.6355 14.1174 11.4906 14.2869C10.9347 15.232 9.88798 17.1305 11.1988 18.271C11.2403 18.7803 11.3644 19.2738 11.5848 19.7274C13.3396 23.2666 16.6256 21.8128 17.7094 19.9776C17.8536 19.7167 17.9702 19.4642 18.0628 19.2203C18.117 19.2545 18.1752 19.281 18.237 19.2983C18.7818 19.4592 19.5961 18.8455 19.7911 18.4642C20.0262 17.9577 19.7854 17.6121 18.9825 17.201C18.9416 17.1807 18.9011 17.1617 18.8612 17.1439C19.1691 15.8473 18.3206 14.4991 17.7146 13.9271C17.6016 13.8993 17.5856 13.9634 17.7611 14.1384C18.1427 14.5041 18.9728 15.8082 18.5237 17.0218C18.4497 17.0019 18.3785 16.988 18.3107 16.9803C18.1727 16.1523 17.8048 15.508 17.5477 15.0579C17.4895 14.9559 17.437 14.8638 17.394 14.7819C17.3075 14.6166 17.204 14.4453 17.0942 14.2637C16.6713 13.564 16.1553 12.7102 16.1553 11.4452C16.0906 11.1668 15.828 10.9813 15.4784 10.8788C15.8842 10.7969 16.1888 10.3228 16.1783 9.75296C16.1668 9.13924 15.7826 8.65065 15.3238 8.66257C14.865 8.67448 14.498 9.18691 14.5152 9.80059ZM14.8937 9.93769C14.888 10.2773 15.0485 10.5514 15.2608 10.5514C15.4672 10.5514 15.6449 10.2773 15.6507 9.94364C15.6564 9.604 15.4958 9.32992 15.2837 9.32992C15.0715 9.32992 14.8994 9.604 14.8937 9.93769Z" fill="url(#paint1_linear_1_573)"/>
<path id="Vector_5" fill-rule="evenodd" clip-rule="evenodd" d="M13.3682 10.754C13.7008 10.7361 13.9417 10.2892 13.913 9.75889C13.8843 9.22859 13.5919 8.81746 13.2592 8.83534C12.9266 8.85322 12.6858 9.30009 12.7145 9.83042C12.7431 10.3607 13.0356 10.7718 13.3682 10.754ZM13.5689 9.94362C13.5976 10.2237 13.4944 10.462 13.3453 10.4858C13.1962 10.5037 13.0528 10.2951 13.0241 10.0151C12.9954 9.73506 13.0986 9.49673 13.2477 9.47289C13.3968 9.45501 13.5402 9.66356 13.5689 9.94362Z" fill="url(#paint2_linear_1_573)"/>
<path id="Vector_6" d="M14.9796 9.74698C14.9624 9.93769 15.0484 10.0926 15.1688 10.1045C15.2893 10.1164 15.404 9.96745 15.4211 9.78273C15.4384 9.59206 15.3523 9.43715 15.2319 9.42523C15.1115 9.41331 14.9968 9.56227 14.9796 9.74698Z" fill="url(#paint3_linear_1_573)"/>
<path id="Vector_7" d="M13.443 9.79452C13.4602 9.94948 13.3972 10.0865 13.3054 10.0984C13.2137 10.1103 13.1276 9.99116 13.1104 9.83033C13.0932 9.67538 13.1562 9.53834 13.2481 9.52642C13.3398 9.51451 13.4258 9.63963 13.443 9.79452Z" fill="url(#paint4_linear_1_573)"/>
<path id="Vector_8" d="M16.9695 16.0092C16.9695 17.058 16.0004 18.4164 14.3374 18.4045C12.6226 18.4164 11.8944 17.058 11.8944 16.0092C11.8944 14.9605 13.0298 14.1085 14.4291 14.1085C15.8341 14.1145 16.9695 14.9605 16.9695 16.0092Z" fill="url(#paint5_linear_1_573)"/>
<path id="Vector_9" d="M16.0638 12.7143C16.0467 13.7987 15.3642 14.0549 14.504 14.0549C13.6438 14.0549 13.0187 13.894 12.9442 12.7143C12.9442 11.9755 13.6438 11.5464 14.504 11.5464C15.3642 11.5404 16.0638 11.9695 16.0638 12.7143Z" fill="url(#paint6_linear_1_573)"/>
<path id="Vector_10" d="M10.8626 14.3825C11.4246 13.4948 12.6116 12.1302 11.0863 14.5732C9.84754 16.5872 10.6275 17.8802 11.0289 18.2376C12.1873 19.3102 12.1414 20.0312 11.2296 19.4651C9.27412 18.2555 9.68129 16.2177 10.8626 14.3825Z" fill="url(#paint7_linear_1_573)"/>
<path id="Vector_11" d="M18.9998 14.7461C18.5124 13.7034 16.964 11.0578 19.0744 14.1324C20.9955 16.9149 19.6478 18.8514 19.407 19.0421C19.1661 19.2328 18.3575 19.62 18.5927 18.9468C18.8335 18.2734 20.0263 16.9984 18.9998 14.7461Z" fill="url(#paint8_linear_1_573)"/>
<path id="Vector_12" d="M10.4383 22.9686C9.15371 22.2597 7.28996 23.1057 7.96664 21.1871C8.10427 20.7522 7.76592 20.0967 7.98384 19.6736C8.2419 19.1553 8.79816 19.2685 9.13077 18.9229C9.45764 18.5654 9.66408 17.9457 10.2777 18.041C10.8856 18.1364 11.2927 18.911 11.7171 19.8643C12.0325 20.5436 13.145 21.5029 13.0704 22.2656C12.9787 23.4334 11.6999 23.6539 10.4383 22.9686Z" fill="url(#paint9_linear_1_573)"/>
<path id="Vector_13" fill-rule="evenodd" clip-rule="evenodd" d="M9.27188 19.0625C8.95951 19.4041 8.38578 19.3223 8.15553 19.7693C8.00765 20.0564 8.16922 20.4976 8.19102 20.812C8.21795 21.2004 7.89596 21.7508 8.05993 22.0825C8.24409 22.455 9.07605 22.4067 9.44178 22.4601C10.3446 22.5921 11.8368 23.7605 12.6532 22.828C13.4513 21.9164 11.9172 20.7628 11.5409 19.9524C11.2962 19.4027 10.93 18.3486 10.2484 18.2416C9.76781 18.167 9.54894 18.7595 9.27188 19.0625ZM10.3064 17.8405C11.1552 17.9736 11.5799 19.074 11.8931 19.7776C12.3686 20.798 13.9978 21.8947 12.9419 23.1009C11.9829 24.1963 10.4688 23.0197 9.38741 22.8617C8.84729 22.7828 7.99537 22.8395 7.71274 22.2678C7.46975 21.7762 7.8357 21.331 7.80173 20.8412C7.77278 20.4237 7.60759 19.9755 7.81074 19.5792C8.08886 19.0223 8.62577 19.1572 8.99069 18.7812C9.37821 18.3555 9.61049 17.7324 10.3064 17.8405Z" fill="#E68C3F"/>
<path id="Vector_14" d="M19.3442 22.6409C20.2847 21.4552 22.3778 21.6995 20.9671 20.0729C20.6689 19.7213 20.7607 18.9705 20.3937 18.6488C19.9635 18.2555 19.4875 18.5773 19.0517 18.3747C18.6159 18.1542 18.1571 17.7312 17.6238 18.0291C17.0904 18.333 17.0331 19.1195 16.9815 20.1562C16.9357 20.9011 16.2819 22.1464 16.6317 22.8316C17.1364 23.8922 18.4496 23.7492 19.3442 22.6409Z" fill="url(#paint10_linear_1_573)"/>
<path id="Vector_15" fill-rule="evenodd" clip-rule="evenodd" d="M19.7192 18.2375C19.9603 18.2312 20.2491 18.2481 20.5204 18.4951C20.8577 18.7925 20.861 19.2781 20.9882 19.6846C21.1388 20.1659 21.6666 20.4409 21.635 21.0053C21.5835 21.9281 19.9854 22.1504 19.4936 22.7706C19.0209 23.356 18.4235 23.7047 17.8565 23.7517C16.9967 23.823 16.2865 23.0999 16.3367 22.2172C16.3775 21.5026 16.7416 20.8534 16.786 20.1445C16.8115 19.6312 16.8391 19.1552 16.9319 18.7687C17.0257 18.3783 17.1946 18.0419 17.5292 17.8513C18.262 17.4419 18.9699 18.2571 19.7192 18.2375ZM17.7162 18.2073C17.5179 18.3207 17.3917 18.5295 17.3106 18.867C17.2286 19.2086 17.2016 19.6462 17.1755 20.1692C17.1318 20.8798 16.767 21.5285 16.7264 22.2412C16.6902 22.8768 17.1783 23.401 17.8255 23.3474C18.2647 23.311 18.7715 23.0336 19.1934 22.5113C19.5704 22.0364 21.211 21.5954 21.2453 20.9818C21.2678 20.5812 20.7407 20.2053 20.6169 19.8099C20.5201 19.5005 20.515 19.0211 20.2671 18.8037C20.1086 18.6589 19.9419 18.6373 19.729 18.6429C19.112 18.6591 18.289 17.8882 17.7162 18.2073Z" fill="#E68C3F"/>
<path id="Vector_16" d="M18.9364 21.056C20.3929 18.8216 19.3091 18.8395 18.9421 18.6666C18.5751 18.4879 18.1909 18.1364 17.7608 18.3806C17.3306 18.6309 17.3077 19.2744 17.2962 20.1205C17.2791 20.7282 16.7916 21.7471 17.0841 22.3132C17.4396 22.9746 18.2998 22.0153 18.9364 21.056Z" fill="url(#paint11_linear_1_573)"/>
<path id="Vector_17" d="M10.1399 21.3778C7.96076 19.912 8.98152 19.4115 9.3084 19.1791C9.70413 18.8812 9.70982 18.3092 10.1973 18.3628C10.6847 18.4164 10.9714 19.042 11.2983 19.8167C11.5391 20.3708 12.3765 21.1096 12.3133 21.7472C12.2331 22.4979 11.0804 22.0034 10.1399 21.3778Z" fill="url(#paint12_linear_1_573)"/>
<path id="Vector_18" d="M19.6652 18.4463C19.4932 18.7561 18.7936 19.2447 18.329 19.1137C17.8531 18.9885 17.6352 18.2913 17.7326 17.767C17.8187 17.1712 18.329 17.1414 18.9714 17.4393C19.6537 17.761 19.8659 18.0351 19.6652 18.4463Z" fill="black"/>
<path id="Vector_19" d="M19.1948 18.2734C19.0858 18.4879 18.6271 18.8275 18.306 18.7381C17.9848 18.6487 17.8243 18.1661 17.8758 17.8026C17.9217 17.3915 18.2658 17.3677 18.7017 17.5703C19.1719 17.7967 19.321 17.9874 19.1948 18.2734Z" fill="url(#paint13_linear_1_573)"/>
<path id="Vector_20" d="M13.2648 10.4976C13.4942 10.2772 14.0504 9.60389 15.1056 10.307C15.3006 10.4381 15.4611 10.45 15.8339 10.6168C16.5852 10.9385 16.2295 11.7132 15.4267 11.9754C15.0826 12.0886 14.773 12.5235 14.1537 12.4819C13.6203 12.452 13.4827 12.0886 13.1558 11.8919C12.5766 11.5523 12.4906 11.0935 12.806 10.8492C13.1214 10.6049 13.2418 10.5155 13.2648 10.4976Z" fill="url(#paint14_linear_1_573)"/>
<path id="Vector_21" fill-rule="evenodd" clip-rule="evenodd" d="M12.8759 10.9467C12.756 11.0396 12.7178 11.1631 12.7575 11.2996C12.8389 11.5802 13.426 11.966 13.6508 12.1547C13.7786 12.2621 13.9248 12.3472 14.1611 12.3604C14.6672 12.3944 14.9482 12.0051 15.3916 11.8593C15.6831 11.764 16.3 11.4002 16.0957 10.9832C15.9213 10.6273 15.3339 10.6053 15.0421 10.4092C14.5399 10.0747 14.1743 10.077 13.9138 10.1709C13.6284 10.2738 13.1344 10.7465 12.8759 10.9467ZM13.837 9.94098C14.1759 9.81894 14.6163 9.83645 15.1691 10.2048C15.5324 10.449 16.0852 10.4255 16.3043 10.8728C16.5835 11.4424 15.907 11.9459 15.4619 12.0914C14.9852 12.2483 14.7188 12.6415 14.1466 12.6033C13.8499 12.5865 13.6596 12.4749 13.5037 12.344C13.1802 12.0724 12.6336 11.8143 12.5087 11.3837C12.4393 11.1449 12.5404 10.9031 12.7359 10.7516C13.0519 10.5069 13.4789 10.0701 13.837 9.94098Z" fill="#E68C3F"/>
<path id="Vector_22" fill-rule="evenodd" clip-rule="evenodd" d="M15.9237 11.1188C15.926 11.1635 15.893 11.2018 15.85 11.2042C15.2431 11.2386 14.8165 11.9312 14.1311 11.9312C13.7475 11.9312 13.4439 11.7462 13.2268 11.5682C13.1831 11.5323 12.7971 11.2348 12.7971 11.1589C12.7971 11.1142 12.8321 11.0779 12.8752 11.0779C12.9558 11.0779 13.1991 11.3419 13.2897 11.4162C13.4942 11.5837 13.7978 11.7691 14.1311 11.7691C14.8097 11.7691 15.226 11.0771 15.8415 11.0422C15.8845 11.0398 15.9213 11.0741 15.9237 11.1188Z" fill="#E68C3F"/>
<path id="Vector_23" d="M13.6209 10.4381C13.7356 10.3308 14.0969 10.0389 14.5729 10.3368C14.6761 10.3963 14.7793 10.4619 14.9284 10.5513C15.2324 10.736 15.0833 11.0041 14.7162 11.1709C14.5499 11.2425 14.2747 11.3973 14.0682 11.3854C13.8389 11.3616 13.684 11.2067 13.5349 11.1054C13.2539 10.9148 13.2711 10.7539 13.4029 10.6288C13.5005 10.5334 13.6095 10.444 13.6209 10.4381Z" fill="url(#paint15_linear_1_573)"/>
</g>
</g>
<defs>
<linearGradient id="paint0_linear_1_573" x1="14.6834" y1="6.51336" x2="14.4896" y2="9.13966" gradientUnits="userSpaceOnUse">
<stop stop-color="white" stop-opacity="0.8"/>
<stop offset="1" stop-color="white" stop-opacity="0"/>
</linearGradient>
<linearGradient id="paint1_linear_1_573" x1="11.9159" y1="20.8416" x2="10.4748" y2="16.1135" gradientUnits="userSpaceOnUse">
<stop stop-color="#FFEED7"/>
<stop offset="1" stop-color="#BDBFC2"/>
</linearGradient>
<linearGradient id="paint2_linear_1_573" x1="11.9158" y1="20.8416" x2="10.4747" y2="16.1134" gradientUnits="userSpaceOnUse">
<stop stop-color="#FFEED7"/>
<stop offset="1" stop-color="#BDBFC2"/>
</linearGradient>
<linearGradient id="paint3_linear_1_573" x1="15.2178" y1="9.44566" x2="15.1361" y2="10.0575" gradientUnits="userSpaceOnUse">
<stop stop-color="white" stop-opacity="0.65"/>
<stop offset="1" stop-color="white" stop-opacity="0"/>
</linearGradient>
<linearGradient id="paint4_linear_1_573" x1="13.2618" y1="9.55704" x2="13.3497" y2="10.052" gradientUnits="userSpaceOnUse">
<stop stop-color="white" stop-opacity="0.65"/>
<stop offset="1" stop-color="white" stop-opacity="0"/>
</linearGradient>
<linearGradient id="paint5_linear_1_573" x1="14.4239" y1="14.6768" x2="14.4385" y2="18.1758" gradientUnits="userSpaceOnUse">
<stop stop-color="white" stop-opacity="0.8"/>
<stop offset="1" stop-color="white" stop-opacity="0"/>
</linearGradient>
<linearGradient id="paint6_linear_1_573" x1="14.5018" y1="12.4827" x2="14.5179" y2="13.874" gradientUnits="userSpaceOnUse">
<stop stop-color="white" stop-opacity="0.65"/>
<stop offset="1" stop-color="white" stop-opacity="0"/>
</linearGradient>
<linearGradient id="paint7_linear_1_573" x1="10.8857" y1="13.3414" x2="10.8857" y2="18.447" gradientUnits="userSpaceOnUse">
<stop stop-color="white" stop-opacity="0.65"/>
<stop offset="1" stop-color="white" stop-opacity="0"/>
</linearGradient>
<linearGradient id="paint8_linear_1_573" x1="19.0391" y1="12.8427" x2="19.0372" y2="17.4559" gradientUnits="userSpaceOnUse">
<stop stop-color="white" stop-opacity="0.65"/>
<stop offset="1" stop-color="white" stop-opacity="0"/>
</linearGradient>
<linearGradient id="paint9_linear_1_573" x1="10.6306" y1="20.6358" x2="9.84863" y2="23.2483" gradientUnits="userSpaceOnUse">
<stop stop-color="#FFA63F"/>
<stop offset="1" stop-color="#FFFF00"/>
</linearGradient>
<linearGradient id="paint10_linear_1_573" x1="18.0315" y1="19.8412" x2="20.1183" y2="22.6867" gradientUnits="userSpaceOnUse">
<stop stop-color="#FFA63F"/>
<stop offset="1" stop-color="#FFFF00"/>
</linearGradient>
<linearGradient id="paint11_linear_1_573" x1="18.5899" y1="17.568" x2="17.8601" y2="21.0062" gradientUnits="userSpaceOnUse">
<stop stop-color="white" stop-opacity="0.65"/>
<stop offset="1" stop-color="white" stop-opacity="0"/>
</linearGradient>
<linearGradient id="paint12_linear_1_573" x1="10.4711" y1="18.4183" x2="10.6158" y2="22.2877" gradientUnits="userSpaceOnUse">
<stop stop-color="white" stop-opacity="0.65"/>
<stop offset="1" stop-color="white" stop-opacity="0"/>
</linearGradient>
<linearGradient id="paint13_linear_1_573" x1="18.4635" y1="17.5053" x2="18.6328" y2="18.6615" gradientUnits="userSpaceOnUse">
<stop stop-color="white" stop-opacity="0.65"/>
<stop offset="1" stop-color="white" stop-opacity="0"/>
</linearGradient>
<linearGradient id="paint14_linear_1_573" x1="14.4266" y1="10.4332" x2="14.4407" y2="12.4694" gradientUnits="userSpaceOnUse">
<stop stop-color="#FFA63F"/>
<stop offset="1" stop-color="#FFFF00"/>
</linearGradient>
<linearGradient id="paint15_linear_1_573" x1="14.2044" y1="10.2407" x2="14.2005" y2="11.3173" gradientUnits="userSpaceOnUse">
<stop stop-color="white" stop-opacity="0.65"/>
<stop offset="1" stop-color="white" stop-opacity="0"/>
</linearGradient>
</defs>
</svg>
