<svg width="33" height="32" viewBox="0 0 33 32" fill="none" xmlns="http://www.w3.org/2000/svg">
<g id="623993f8e75c5b5708a61193_safari.svg">
<g id="Group" style="mix-blend-mode:luminosity">
<path id="Vector" d="M16.2656 30C23.9976 30 30.2656 23.732 30.2656 16C30.2656 8.26801 23.9976 2 16.2656 2C8.53364 2 2.26562 8.26801 2.26562 16C2.26562 23.732 8.53364 30 16.2656 30Z" fill="url(#paint0_linear_1_615)"/>
<path id="Vector_2" d="M16.2654 28.9499C23.4175 28.9499 29.2154 23.152 29.2154 15.9999C29.2154 8.84784 23.4175 3.04993 16.2654 3.04993C9.11335 3.04993 3.31543 8.84784 3.31543 15.9999C3.31543 23.152 9.11335 28.9499 16.2654 28.9499Z" fill="url(#paint1_radial_1_615)"/>
<path id="Vector_3" d="M16.2871 6.20007C16.1996 6.20007 16.123 6.13447 16.123 6.04697V3.76101C16.123 3.67351 16.1996 3.60791 16.2871 3.60791C16.3746 3.60791 16.4511 3.67351 16.4511 3.76101V6.04697C16.4402 6.13447 16.3746 6.20007 16.2871 6.20007Z" fill="#F3F3F3"/>
<path id="Vector_4" d="M16.2873 6.21096C16.1888 6.21096 16.1123 6.13441 16.1123 6.04691V3.76097C16.1123 3.67347 16.1888 3.59692 16.2873 3.59692C16.3857 3.59692 16.4623 3.67347 16.4623 3.76097V6.04691C16.4623 6.13441 16.3748 6.21096 16.2873 6.21096ZM16.2873 3.61871C16.2107 3.61871 16.1342 3.68442 16.1342 3.76097V6.04691C16.1342 6.12346 16.1998 6.18917 16.2873 6.18917C16.3638 6.18917 16.4404 6.12346 16.4404 6.04691V3.76097C16.4295 3.68442 16.3638 3.61871 16.2873 3.61871Z" fill="white"/>
<path id="Vector_5" d="M17.3816 4.97506C17.2941 4.96411 17.2285 4.89851 17.2285 4.81101L17.305 3.79373C17.3159 3.70634 17.3925 3.64063 17.48 3.65158C17.5675 3.66254 17.6331 3.72825 17.6331 3.81575L17.5566 4.83291C17.5456 4.92041 17.4691 4.9859 17.3816 4.97506Z" fill="#F3F3F3"/>
<path id="Vector_6" d="M17.3808 4.98592C17.2824 4.97496 17.2168 4.89842 17.2168 4.81092L17.2933 3.79365C17.3043 3.70626 17.3808 3.62971 17.4793 3.64055C17.5776 3.65151 17.6433 3.72817 17.6433 3.81555L17.5668 4.83282C17.5558 4.93127 17.4793 4.99687 17.3808 4.98592ZM17.4793 3.66246C17.4027 3.66246 17.3261 3.71722 17.3261 3.79376L17.2495 4.81103C17.2495 4.88746 17.3043 4.95317 17.3918 4.96401C17.4683 4.96401 17.5449 4.90937 17.5449 4.83282L17.6214 3.81555C17.6214 3.73901 17.5559 3.67341 17.4793 3.66246Z" fill="white"/>
<path id="Vector_7" d="M18.201 6.39693C18.1134 6.37502 18.0588 6.29847 18.0697 6.21097L18.5181 3.9687C18.5401 3.88131 18.6166 3.82656 18.7041 3.84846C18.7916 3.87036 18.8462 3.94691 18.8353 4.03441L18.3869 6.27668C18.3759 6.35312 18.2885 6.40788 18.201 6.39693Z" fill="#F3F3F3"/>
<path id="Vector_8" d="M18.2012 6.40784C18.1027 6.38593 18.048 6.29843 18.059 6.21093L18.5074 3.96869C18.5293 3.8813 18.6168 3.81559 18.7151 3.8375C18.8136 3.8594 18.8683 3.9469 18.8574 4.0344L18.4089 6.27664C18.387 6.36403 18.2996 6.41879 18.2012 6.40784ZM18.7151 3.8594C18.6386 3.84845 18.562 3.89214 18.5401 3.9688L18.0918 6.21105C18.0809 6.28748 18.1246 6.36403 18.2121 6.38605C18.2886 6.39689 18.3651 6.35308 18.387 6.27653L18.8355 4.0344C18.8464 3.9469 18.7918 3.8813 18.7151 3.8594Z" fill="white"/>
<path id="Vector_9" d="M19.5145 5.41251C19.4936 5.40749 19.474 5.39841 19.4567 5.3858C19.4393 5.37318 19.4247 5.35727 19.4135 5.33899C19.4023 5.3207 19.3949 5.30039 19.3916 5.27922C19.3883 5.25805 19.3892 5.23643 19.3942 5.21561L19.6677 4.23132C19.6895 4.14382 19.777 4.10001 19.8645 4.12192C19.952 4.14382 20.0067 4.23132 19.9848 4.31882L19.7114 5.30322C19.6895 5.39061 19.602 5.43442 19.5145 5.41251Z" fill="#F3F3F3"/>
<path id="Vector_10" d="M19.5146 5.42352C19.4271 5.40161 19.3615 5.30316 19.3943 5.21578L19.6678 4.23127C19.6895 4.14389 19.788 4.08913 19.8755 4.11103C19.963 4.13293 20.0285 4.23139 19.9958 4.31877L19.7224 5.30328C19.7005 5.39066 19.6129 5.44542 19.5146 5.42352ZM19.8755 4.14389C19.7989 4.12198 19.7114 4.16579 19.6895 4.24234L19.4162 5.22662C19.3943 5.30316 19.438 5.37982 19.5255 5.40161C19.602 5.42352 19.6895 5.37982 19.7114 5.30328L19.9849 4.31877C19.9958 4.24234 19.9521 4.16591 19.8755 4.14389Z" fill="white"/>
<path id="Vector_11" d="M20.0501 6.95474C19.9626 6.92188 19.9299 6.82343 19.9626 6.74688L20.8376 4.63594C20.8703 4.5594 20.9689 4.51559 21.0453 4.5594C21.1329 4.59214 21.1658 4.6907 21.1329 4.76714L20.258 6.87808C20.2252 6.95474 20.1266 6.99843 20.0501 6.95474Z" fill="#F3F3F3"/>
<path id="Vector_12" d="M20.0498 6.96578C20.0078 6.94977 19.9738 6.91774 19.9554 6.87673C19.9369 6.83571 19.9355 6.78905 19.9514 6.74698L20.8264 4.63601C20.8592 4.54851 20.9577 4.51565 21.0561 4.54851C21.0982 4.56453 21.1321 4.59655 21.1506 4.63757C21.169 4.67858 21.1705 4.72524 21.1546 4.76732L20.2796 6.87828C20.2358 6.96578 20.1373 7.00948 20.0498 6.96578ZM21.0452 4.57041C20.9686 4.53767 20.8811 4.57041 20.8483 4.64696L19.9733 6.75793C19.9405 6.83448 19.9842 6.91103 20.0608 6.94388C20.1373 6.97662 20.2248 6.94388 20.2577 6.86733L21.1327 4.75637C21.1546 4.69066 21.1217 4.60316 21.0452 4.57041Z" fill="white"/>
<path id="Vector_13" d="M21.5268 6.25474C21.4502 6.21093 21.4173 6.12343 21.4502 6.04689L21.9095 5.13916C21.9532 5.0625 22.0407 5.02965 22.1283 5.07345C22.2048 5.11726 22.2376 5.20476 22.2048 5.28119L21.7454 6.18903C21.7017 6.26558 21.6143 6.29854 21.5268 6.25474Z" fill="#F3F3F3"/>
<path id="Vector_14" d="M21.5266 6.26577C21.439 6.22197 21.4062 6.12351 21.4499 6.03601L21.9093 5.12828C21.953 5.04067 22.0516 5.00792 22.139 5.05162C22.2265 5.09542 22.2593 5.19388 22.2155 5.28137L21.7562 6.18911C21.7124 6.27661 21.6141 6.30957 21.5266 6.26577ZM22.1281 5.07352C22.0515 5.04078 21.964 5.06257 21.9312 5.13912L21.4718 6.04697C21.4391 6.11256 21.4718 6.20006 21.5374 6.24387C21.614 6.27661 21.7015 6.25482 21.7343 6.17827L22.1937 5.27042C22.2265 5.20483 22.1937 5.11733 22.1281 5.07352Z" fill="white"/>
<path id="Vector_15" d="M21.745 7.87353C21.6685 7.81888 21.6466 7.72043 21.7012 7.65483L22.97 5.76256C23.0137 5.68601 23.1123 5.67506 23.1887 5.71887C23.2654 5.77351 23.2872 5.87196 23.2325 5.93756L21.9637 7.82983C21.92 7.90638 21.8216 7.92828 21.745 7.87353Z" fill="#F3F3F3"/>
<path id="Vector_16" d="M21.7449 7.88442C21.6684 7.82977 21.6465 7.72037 21.6903 7.64382L22.959 5.75161C23.0136 5.67506 23.1121 5.65316 23.1996 5.70791C23.2761 5.76256 23.298 5.87196 23.2543 5.94851L21.9855 7.84072C21.9309 7.91727 21.8215 7.93906 21.7449 7.88442ZM23.1886 5.72982C23.1231 5.68601 23.0246 5.69696 22.9809 5.76256L21.7121 7.65478C21.6684 7.72026 21.6902 7.80787 21.7559 7.85156C21.8215 7.89537 21.9199 7.88442 21.9636 7.81882L23.2324 5.93755C23.2761 5.87196 23.2543 5.77351 23.1886 5.72982Z" fill="white"/>
<path id="Vector_17" d="M23.342 7.46886C23.2765 7.4141 23.2546 7.31565 23.3093 7.25005L23.9436 6.4516C23.9982 6.38612 24.0967 6.37505 24.1623 6.42981C24.228 6.48445 24.2498 6.58291 24.195 6.6485L23.5608 7.44695C23.5061 7.51255 23.4076 7.5235 23.342 7.46886Z" fill="#F3F3F3"/>
<path id="Vector_18" d="M23.3316 7.47974C23.255 7.42498 23.2441 7.31557 23.2989 7.23902L23.9331 6.44066C23.9878 6.364 24.0972 6.35305 24.1737 6.41876C24.2502 6.4734 24.2612 6.58281 24.2064 6.65936L23.5722 7.45783C23.5175 7.53439 23.4081 7.54534 23.3316 7.47974ZM24.1518 6.44055C24.0863 6.3859 23.9987 6.39685 23.9441 6.46245L23.3097 7.26093C23.266 7.32652 23.277 7.41403 23.3424 7.46867C23.4081 7.52343 23.4956 7.51248 23.5503 7.44688L24.1846 6.64841C24.2285 6.58281 24.2173 6.48425 24.1518 6.44055Z" fill="white"/>
<path id="Vector_19" d="M23.2328 9.10941C23.1672 9.04382 23.1672 8.94537 23.2328 8.89061L24.8514 7.28289C24.9171 7.2173 25.0154 7.22814 25.0702 7.28289C25.1248 7.33754 25.1358 7.44694 25.0702 7.50158L23.4625 9.10941C23.3968 9.17501 23.2984 9.17501 23.2328 9.10941Z" fill="#F3F3F3"/>
<path id="Vector_20" d="M23.2222 9.12037C23.1906 9.08828 23.1729 9.04508 23.1729 9.00007C23.1729 8.95507 23.1906 8.91187 23.2222 8.87978L24.8409 7.27193C24.873 7.24035 24.9162 7.22266 24.9612 7.22266C25.0063 7.22266 25.0495 7.24035 25.0816 7.27193C25.1131 7.30403 25.1308 7.34723 25.1308 7.39223C25.1308 7.43723 25.1131 7.48044 25.0816 7.51253L23.4628 9.12026C23.4307 9.1518 23.3875 9.16948 23.3425 9.16948C23.2974 9.16948 23.2542 9.15191 23.2222 9.12037ZM25.0706 7.28289C25.016 7.22813 24.9175 7.22813 24.8629 7.28289L23.2441 8.89062C23.1893 8.94537 23.1893 9.04382 23.2441 9.09847C23.2987 9.15323 23.3972 9.15323 23.4518 9.09847L25.0706 7.49074C25.1253 7.43598 25.1253 7.34848 25.0706 7.28289Z" fill="white"/>
<path id="Vector_21" d="M24.8737 9.02192C24.819 8.95633 24.819 8.85788 24.8846 8.80312L25.6611 8.14695C25.7267 8.09231 25.8252 8.10315 25.8799 8.16885C25.9345 8.23445 25.9345 8.3329 25.869 8.38754L25.0925 9.04382C25.0268 9.09847 24.9283 9.08752 24.8737 9.02192Z" fill="#F3F3F3"/>
<path id="Vector_22" d="M24.8624 9.03285C24.7968 8.95631 24.8078 8.8469 24.8733 8.79226L25.6498 8.13596C25.7154 8.07036 25.8248 8.08131 25.8904 8.15786C25.9561 8.23441 25.9452 8.34381 25.8796 8.39846L25.103 9.05476C25.0375 9.12024 24.9279 9.1094 24.8624 9.03285ZM25.8686 8.16881C25.8139 8.10322 25.7264 8.10322 25.6609 8.14691L24.8843 8.80321C24.8297 8.85786 24.8187 8.94535 24.8733 9.01095C24.928 9.07655 25.0156 9.07655 25.0811 9.03285L25.8577 8.37655C25.9233 8.32191 25.9233 8.23441 25.8686 8.16881Z" fill="white"/>
<path id="Vector_23" d="M24.4357 10.597C24.381 10.5204 24.4029 10.422 24.4795 10.3782L26.3825 9.10946C26.459 9.06565 26.5575 9.08756 26.6012 9.15327C26.6559 9.22982 26.634 9.32827 26.5575 9.37196L24.6545 10.6407C24.5888 10.6845 24.4903 10.6626 24.4357 10.597Z" fill="#F3F3F3"/>
<path id="Vector_24" d="M24.4248 10.5969C24.3702 10.5204 24.3921 10.411 24.4687 10.3563L26.3717 9.08751C26.4483 9.03287 26.5577 9.05477 26.6123 9.14227C26.6671 9.21882 26.6451 9.32822 26.5686 9.38275L24.6656 10.6517C24.5889 10.7064 24.4796 10.6844 24.4248 10.5969ZM26.5904 9.16417C26.5467 9.09847 26.4592 9.07656 26.3936 9.12037L24.4904 10.389C24.425 10.4329 24.4029 10.5204 24.4577 10.5969C24.5014 10.6625 24.5889 10.6844 24.6546 10.6407L26.5577 9.37191C26.6233 9.31727 26.6342 9.22966 26.5904 9.16417Z" fill="white"/>
<path id="Vector_25" d="M26.0663 10.8266C26.0224 10.7499 26.0443 10.6516 26.1209 10.6078L27.0069 10.1047C27.0834 10.0609 27.1819 10.0938 27.2256 10.1702C27.2694 10.2469 27.2475 10.3452 27.1709 10.389L26.2849 10.8922C26.2084 10.9359 26.1101 10.9032 26.0663 10.8266Z" fill="#F3F3F3"/>
<path id="Vector_26" d="M26.0546 10.8375C26.0108 10.75 26.0327 10.6515 26.1093 10.6078L26.9952 10.1047C27.0718 10.0609 27.1812 10.0938 27.2249 10.1702C27.2687 10.2578 27.2468 10.3563 27.1703 10.4L26.2843 10.9032C26.2077 10.9469 26.0983 10.914 26.0546 10.8375ZM27.2139 10.1813C27.1702 10.1047 27.0827 10.0828 27.0172 10.1265L26.1312 10.6297C26.0656 10.6734 26.0437 10.7609 26.0764 10.8265C26.1202 10.9031 26.2077 10.925 26.2733 10.8813L27.1593 10.3781C27.2249 10.3453 27.2468 10.2578 27.2139 10.1813Z" fill="white"/>
<path id="Vector_27" d="M25.3327 12.2813C25.3 12.1938 25.3327 12.1063 25.4202 12.0735L27.5312 11.1986C27.6077 11.1657 27.7062 11.2094 27.7389 11.2859C27.7718 11.3734 27.7389 11.4609 27.6514 11.4937L25.5406 12.3687C25.4639 12.4015 25.3656 12.3687 25.3327 12.2813Z" fill="#F3F3F3"/>
<path id="Vector_28" d="M25.322 12.2922C25.2893 12.2048 25.322 12.1063 25.4095 12.0625L27.5204 11.1876C27.5625 11.1717 27.6091 11.1732 27.6501 11.1916C27.6911 11.2101 27.7231 11.244 27.7391 11.286C27.772 11.3735 27.7391 11.4719 27.6516 11.5156L25.5408 12.3906C25.4987 12.4065 25.4521 12.4051 25.4111 12.3866C25.3701 12.3682 25.338 12.3342 25.322 12.2922ZM27.7173 11.297C27.6845 11.2204 27.597 11.1876 27.5314 11.2095L25.4204 12.0844C25.3439 12.1172 25.311 12.2048 25.3439 12.2813C25.3766 12.3579 25.4641 12.3907 25.5298 12.3688L27.6407 11.4938C27.7173 11.4611 27.7502 11.3735 27.7173 11.297Z" fill="white"/>
<path id="Vector_29" d="M26.8751 12.8283C26.8424 12.7406 26.886 12.6533 26.9735 12.6204L27.9359 12.3031C28.0125 12.2704 28.1109 12.325 28.1328 12.4016C28.1656 12.4891 28.1219 12.5766 28.0344 12.6094L27.072 12.9267C26.9954 12.9594 26.9079 12.916 26.8751 12.8283Z" fill="#F3F3F3"/>
<path id="Vector_30" d="M26.8642 12.839C26.8315 12.7515 26.8752 12.6531 26.9737 12.6203L27.936 12.3031C28.0235 12.2703 28.122 12.325 28.1548 12.4126C28.1875 12.5 28.1439 12.5984 28.0453 12.6313L27.083 12.9485C26.9955 12.9703 26.8971 12.9265 26.8642 12.839ZM28.1329 12.4235C28.111 12.3469 28.0235 12.3031 27.947 12.325L26.9846 12.6422C26.908 12.664 26.8752 12.7515 26.8971 12.8282C26.919 12.9047 27.0065 12.9484 27.083 12.9265L28.0454 12.6094C28.122 12.5766 28.1548 12.5001 28.1329 12.4235Z" fill="white"/>
<path id="Vector_31" d="M25.8906 14.1297C25.8687 14.0422 25.9233 13.9547 26.0108 13.9438L28.2529 13.5063C28.3403 13.4844 28.4169 13.55 28.4387 13.6375C28.4606 13.725 28.406 13.8125 28.3185 13.8234L26.0764 14.2609C25.9889 14.2719 25.9016 14.2172 25.8906 14.1297Z" fill="#F3F3F3"/>
<path id="Vector_32" d="M25.8685 14.1299C25.8466 14.0314 25.9122 13.9439 25.9997 13.922L28.2419 13.4844C28.3294 13.4625 28.4169 13.5283 28.4387 13.6267C28.4606 13.7251 28.395 13.8126 28.3075 13.8345L26.0653 14.272C25.9779 14.2939 25.8903 14.2285 25.8685 14.1299ZM28.4169 13.6376C28.406 13.561 28.3294 13.5064 28.2529 13.5173L26.0106 13.9548C25.9341 13.9658 25.8794 14.0532 25.9012 14.1299C25.9122 14.2064 25.9887 14.2611 26.0654 14.2501L28.3075 13.8126C28.3841 13.7907 28.4387 13.7141 28.4169 13.6376Z" fill="white"/>
<path id="Vector_33" d="M27.2904 14.9719C27.2795 14.8844 27.3341 14.8078 27.4216 14.7968L28.4278 14.6765C28.5153 14.6656 28.592 14.7312 28.6028 14.8187C28.6138 14.9063 28.5591 14.9828 28.4716 14.9938L27.4653 15.114C27.3888 15.125 27.3014 15.0594 27.2904 14.9719Z" fill="#F3F3F3"/>
<path id="Vector_34" d="M27.2795 14.9719C27.2685 14.8734 27.3341 14.7859 27.4216 14.775L28.4278 14.6548C28.5153 14.6438 28.6028 14.7094 28.6137 14.8078C28.6247 14.9063 28.5591 14.9938 28.4716 15.0047L27.4653 15.125C27.3779 15.1359 27.2903 15.0703 27.2795 14.9719ZM28.6028 14.8188C28.5919 14.7423 28.5154 14.6765 28.4387 14.6875L27.4326 14.8078C27.356 14.8188 27.3013 14.8953 27.3122 14.9719C27.3232 15.0484 27.3997 15.1141 27.4763 15.1032L28.4825 14.9828C28.5591 14.9719 28.6136 14.8953 28.6028 14.8188Z" fill="white"/>
<path id="Vector_35" d="M26.0654 16.0328C26.0654 15.9453 26.1309 15.8688 26.2185 15.8688H28.5045C28.592 15.8688 28.6576 15.9453 28.6576 16.0328C28.6576 16.1203 28.592 16.1969 28.5045 16.1969H26.2185C26.131 16.1969 26.0654 16.1203 26.0654 16.0328Z" fill="#F3F3F3"/>
<path id="Vector_36" d="M26.0547 16.0329C26.0547 15.9345 26.1312 15.8579 26.2187 15.8579H28.5047C28.5922 15.8579 28.6687 15.9345 28.6687 16.0329C28.6687 16.1313 28.5922 16.2079 28.5047 16.2079H26.2187C26.1312 16.2079 26.0547 16.1313 26.0547 16.0329ZM28.6468 16.0439C28.6468 15.9673 28.5812 15.8908 28.5045 15.8908H26.2188C26.1423 15.8908 26.0766 15.9562 26.0766 16.0439C26.0766 16.1204 26.1423 16.1969 26.2188 16.1969H28.5048C28.5813 16.186 28.6468 16.1204 28.6468 16.0439Z" fill="white"/>
<path id="Vector_37" d="M27.2794 17.1375C27.2902 17.05 27.3559 16.9844 27.4434 16.9844L28.4606 17.0609C28.548 17.0719 28.6136 17.1484 28.6027 17.2359C28.5918 17.3234 28.5261 17.389 28.4386 17.389L27.4215 17.3125C27.345 17.3015 27.2794 17.225 27.2794 17.1375Z" fill="#F3F3F3"/>
<path id="Vector_38" d="M27.2686 17.1376C27.2796 17.0391 27.3561 16.9735 27.4436 16.9735L28.461 17.0501C28.5484 17.061 28.625 17.1376 28.614 17.236C28.6032 17.3345 28.5265 17.4001 28.439 17.4001L27.4217 17.3235C27.3342 17.3126 27.2686 17.2251 27.2686 17.1376ZM28.6032 17.236C28.614 17.1595 28.5484 17.0829 28.4718 17.0829L27.4545 17.0064C27.378 17.0064 27.3123 17.061 27.3014 17.1486C27.2905 17.2251 27.3561 17.3016 27.4327 17.3016L28.45 17.3782C28.5265 17.3782 28.5922 17.3127 28.6032 17.236Z" fill="white"/>
<path id="Vector_39" d="M25.8686 17.936C25.8905 17.8485 25.967 17.7937 26.0545 17.8048L28.2967 18.2532C28.3842 18.275 28.4389 18.3516 28.417 18.4391C28.3951 18.5266 28.3186 18.5813 28.2311 18.5704L25.9888 18.1219C25.9123 18.111 25.8576 18.0235 25.8686 17.936Z" fill="#F3F3F3"/>
<path id="Vector_40" d="M25.8578 17.936C25.8797 17.8375 25.9672 17.7829 26.0547 17.7937L28.297 18.2422C28.3845 18.264 28.4501 18.3515 28.4282 18.45C28.4064 18.5484 28.3189 18.6032 28.2314 18.5922L25.989 18.1438C25.9015 18.1219 25.8469 18.0343 25.8578 17.936ZM28.4064 18.45C28.4174 18.3734 28.3737 18.2969 28.297 18.275L26.0546 17.8266C25.9782 17.8157 25.9015 17.8594 25.8796 17.9469C25.8688 18.0235 25.9125 18.1 25.9891 18.1219L28.2314 18.5703C28.3189 18.5813 28.3845 18.5265 28.4064 18.45Z" fill="white"/>
<path id="Vector_41" d="M26.8533 19.2485C26.8583 19.2277 26.8674 19.208 26.88 19.1907C26.8926 19.1734 26.9085 19.1587 26.9268 19.1476C26.945 19.1364 26.9653 19.1289 26.9865 19.1256C27.0077 19.1223 27.0293 19.1232 27.0501 19.1282L28.0345 19.4016C28.122 19.4235 28.1657 19.5111 28.1439 19.5985C28.1389 19.6193 28.1298 19.639 28.1172 19.6563C28.1046 19.6737 28.0887 19.6883 28.0704 19.6995C28.0521 19.7107 28.0318 19.7182 28.0106 19.7215C27.9894 19.7248 27.9678 19.7239 27.947 19.7189L26.9626 19.4454C26.8751 19.4235 26.8315 19.336 26.8533 19.2485Z" fill="#F3F3F3"/>
<path id="Vector_42" d="M26.8427 19.2485C26.8646 19.161 26.9631 19.0954 27.0506 19.1282L28.035 19.4015C28.1225 19.4234 28.1772 19.5219 28.1553 19.6094C28.1334 19.6969 28.035 19.7624 27.9475 19.7297L26.9631 19.4563C26.8756 19.4344 26.8207 19.3468 26.8427 19.2485ZM28.1225 19.6094C28.1444 19.5328 28.1006 19.4453 28.024 19.4234L27.0396 19.15C26.9631 19.1281 26.8865 19.1719 26.8646 19.2594C26.8428 19.336 26.8865 19.4234 26.9631 19.4453L27.9475 19.7188C28.024 19.7297 28.1006 19.686 28.1225 19.6094Z" fill="white"/>
<path id="Vector_43" d="M25.3113 19.7735C25.344 19.686 25.4426 19.6531 25.519 19.686L27.63 20.5609C27.7066 20.5937 27.7503 20.6922 27.7175 20.7687C27.6847 20.8563 27.5862 20.889 27.5097 20.8563L25.3988 19.9813C25.3113 19.9486 25.2784 19.8499 25.3113 19.7735Z" fill="#F3F3F3"/>
<path id="Vector_44" d="M25.2995 19.7625C25.3156 19.7205 25.3476 19.6865 25.3886 19.668C25.4296 19.6496 25.4763 19.6481 25.5183 19.664L27.6292 20.5391C27.7167 20.5719 27.7495 20.6704 27.7167 20.7688C27.7007 20.8109 27.6687 20.8448 27.6277 20.8633C27.5866 20.8817 27.54 20.8832 27.4979 20.8673L25.387 19.9923C25.2995 19.9484 25.2668 19.85 25.2995 19.7625ZM27.6948 20.7579C27.7276 20.6813 27.6948 20.5938 27.6183 20.561L25.5074 19.6859C25.4308 19.6532 25.3543 19.6969 25.3214 19.7734C25.2887 19.85 25.3214 19.9375 25.398 19.9704L27.5089 20.8454C27.5854 20.8673 27.6729 20.8344 27.6948 20.7579Z" fill="white"/>
<path id="Vector_45" d="M26.0216 21.25C26.0654 21.1735 26.1528 21.1406 26.2294 21.1735L27.1371 21.6329C27.2136 21.6656 27.2465 21.7641 27.2028 21.8516C27.159 21.9281 27.0715 21.9611 26.995 21.9281L26.0873 21.4688C26.0107 21.425 25.9778 21.3266 26.0216 21.25Z" fill="#F3F3F3"/>
<path id="Vector_46" d="M26.0105 21.2391C26.0543 21.1516 26.1527 21.1189 26.2402 21.1626L27.148 21.622C27.2355 21.6658 27.2683 21.7643 27.2245 21.8516C27.1808 21.9391 27.0823 21.972 26.9949 21.9282L26.0871 21.4689C25.9995 21.4362 25.9668 21.3266 26.0105 21.2391ZM27.1918 21.8407C27.2245 21.7641 27.2026 21.6766 27.1261 21.6439L26.2183 21.1845C26.1526 21.1517 26.0652 21.1845 26.0214 21.2501C25.9887 21.3266 26.0105 21.4141 26.087 21.447L26.9948 21.9064C27.0714 21.9391 27.1589 21.9174 27.1918 21.8407Z" fill="white"/>
<path id="Vector_47" d="M24.4141 21.4578C24.4689 21.3813 24.5564 21.3594 24.6329 21.414L26.5361 22.6828C26.6126 22.7265 26.6236 22.8251 26.5799 22.9015C26.5251 22.9782 26.4376 23 26.361 22.9453L24.4579 21.6765C24.3814 21.6219 24.3595 21.5234 24.4141 21.4578Z" fill="#F3F3F3"/>
<path id="Vector_48" d="M24.4035 21.4468C24.4582 21.3703 24.5677 21.3484 24.6442 21.3922L26.5474 22.6609C26.6239 22.7155 26.6458 22.814 26.5911 22.9015C26.5364 22.9781 26.427 22.9999 26.3506 22.9562L24.4473 21.6874C24.3598 21.6328 24.3488 21.5234 24.4035 21.4468ZM26.5583 22.8905C26.602 22.825 26.5911 22.7265 26.5256 22.6828L24.6223 21.414C24.5567 21.3703 24.4692 21.3922 24.4254 21.4578C24.3817 21.5234 24.3926 21.6218 24.4581 21.6655L26.3614 22.9343C26.427 22.9781 26.5145 22.9561 26.5583 22.8905Z" fill="white"/>
<path id="Vector_49" d="M24.8192 23.0438C24.8738 22.9781 24.9723 22.9563 25.0379 23.0111L25.8364 23.6344C25.902 23.6891 25.9129 23.7875 25.8583 23.8532C25.8036 23.9187 25.7052 23.9407 25.6394 23.886L24.841 23.2625C24.7755 23.2078 24.7644 23.1094 24.8192 23.0438Z" fill="#F3F3F3"/>
<path id="Vector_50" d="M24.8076 23.0329C24.8622 22.9564 24.9716 22.9454 25.0482 23.0002L25.8466 23.6235C25.9231 23.6782 25.9341 23.7876 25.8793 23.8641C25.8247 23.9408 25.7153 23.9516 25.6389 23.897L24.8403 23.2735C24.7638 23.2189 24.753 23.1095 24.8076 23.0329ZM25.8576 23.8533C25.9122 23.7876 25.9012 23.7001 25.8356 23.6454L25.0372 23.022C24.9716 22.9783 24.8841 22.9892 24.8295 23.0547C24.7747 23.1204 24.7857 23.2079 24.8513 23.2626L25.6497 23.886C25.7153 23.9298 25.803 23.9188 25.8576 23.8533Z" fill="white"/>
<path id="Vector_51" d="M23.1894 22.9345C23.2551 22.8689 23.3536 22.8689 23.4082 22.9345L25.0269 24.5422C25.0927 24.6079 25.0817 24.7063 25.0269 24.761C24.9615 24.8266 24.8629 24.8266 24.8082 24.761L23.1894 23.1533C23.1348 23.0985 23.1348 22.9891 23.1894 22.9345Z" fill="#F3F3F3"/>
<path id="Vector_52" d="M23.1892 22.9234C23.2213 22.8918 23.2646 22.8741 23.3096 22.8741C23.3546 22.8741 23.3978 22.8918 23.4299 22.9234L25.0487 24.5311C25.0803 24.5632 25.098 24.6064 25.098 24.6515C25.098 24.6965 25.0803 24.7397 25.0487 24.7718C25.0166 24.8034 24.9734 24.8211 24.9284 24.8211C24.8834 24.8211 24.8402 24.8034 24.8081 24.7718L23.1892 23.1641C23.1127 23.0984 23.1127 22.9891 23.1892 22.9234ZM25.0268 24.7499C25.0816 24.6953 25.0816 24.5968 25.0268 24.5422L23.408 22.9344C23.3534 22.8797 23.2549 22.8797 23.2003 22.9344C23.1455 22.989 23.1455 23.0875 23.2003 23.1421L24.819 24.7499C24.8737 24.8156 24.9613 24.8156 25.0268 24.7499Z" fill="white"/>
<path id="Vector_53" d="M23.2873 24.564C23.353 24.5094 23.4514 24.5094 23.5061 24.575L24.1734 25.3406C24.228 25.4063 24.2171 25.5047 24.1514 25.5594C24.0859 25.614 23.9873 25.614 23.9327 25.5484L23.2654 24.7828C23.2108 24.7282 23.2217 24.6297 23.2873 24.564Z" fill="#F3F3F3"/>
<path id="Vector_54" d="M23.2765 24.564C23.3531 24.4986 23.4515 24.5094 23.517 24.575L24.1842 25.3406C24.2498 25.4063 24.2389 25.5156 24.1623 25.5813C24.0858 25.6469 23.9873 25.6359 23.9217 25.5703L23.2545 24.8047C23.1998 24.7282 23.1999 24.6188 23.2765 24.564ZM24.1515 25.5594C24.217 25.5047 24.217 25.4171 24.1733 25.3516L23.506 24.5859C23.4514 24.5313 23.3639 24.5203 23.2983 24.575C23.2327 24.6297 23.2327 24.7172 23.2764 24.7827L23.9436 25.5484C23.9983 25.614 24.086 25.614 24.1515 25.5594Z" fill="white"/>
<path id="Vector_55" d="M21.7121 24.1485C21.7886 24.0939 21.8871 24.1158 21.9309 24.1923L23.1996 26.0844C23.2434 26.161 23.2215 26.2594 23.1559 26.3032C23.0793 26.3579 22.9809 26.336 22.9371 26.2594L21.6683 24.3672C21.6245 24.2908 21.6465 24.1922 21.7121 24.1485Z" fill="#F3F3F3"/>
<path id="Vector_56" d="M21.7124 24.1375C21.789 24.0829 21.8984 24.1048 21.953 24.1813L23.2217 26.0735C23.2764 26.1499 23.2544 26.2593 23.1671 26.3139C23.0904 26.3687 22.9811 26.3468 22.9264 26.2702L21.6578 24.3781C21.6031 24.2907 21.625 24.1922 21.7124 24.1375ZM23.1561 26.2921C23.2217 26.2483 23.2436 26.1608 23.1998 26.0952L21.9312 24.2031C21.8874 24.1376 21.7999 24.1266 21.7235 24.1704C21.6578 24.2141 21.6359 24.3016 21.6797 24.3673L22.9483 26.2593C22.9921 26.3139 23.0906 26.3359 23.1561 26.2921Z" fill="white"/>
<path id="Vector_57" d="M21.4827 25.7671C21.5592 25.7234 21.6577 25.7453 21.7014 25.8219L22.2046 26.7078C22.2483 26.7844 22.2154 26.8828 22.1389 26.9265C22.0623 26.9703 21.9639 26.9484 21.9202 26.8719L21.4171 25.9859C21.3843 25.9094 21.4063 25.8108 21.4827 25.7671Z" fill="#F3F3F3"/>
<path id="Vector_58" d="M21.483 25.7563C21.5705 25.7125 21.6689 25.7344 21.7126 25.811L22.2157 26.697C22.2595 26.7736 22.2376 26.883 22.1503 26.9267C22.0626 26.9705 21.9642 26.9486 21.9205 26.8721L21.4174 25.986C21.3736 25.9095 21.3956 25.811 21.483 25.7563ZM22.1392 26.9159C22.2049 26.8721 22.2376 26.7845 22.1939 26.7189L21.6908 25.8329C21.647 25.7673 21.5595 25.7454 21.4939 25.7781C21.4282 25.8219 21.3955 25.9095 21.4392 25.9751L21.9424 26.8611C21.9751 26.9267 22.0736 26.9597 22.1392 26.9159Z" fill="white"/>
<path id="Vector_59" d="M20.0281 25.0454C20.1156 25.0126 20.2031 25.0454 20.236 25.1219L21.1219 27.2328C21.1547 27.3094 21.111 27.4078 21.0344 27.4405C20.9579 27.4734 20.8594 27.4405 20.8267 27.364L19.9407 25.2532C19.9079 25.1765 19.9516 25.0782 20.0281 25.0454Z" fill="#F3F3F3"/>
<path id="Vector_60" d="M20.0282 25.0344C20.1157 25.0017 20.2141 25.0344 20.2579 25.1219L21.1438 27.2329C21.1597 27.2749 21.1582 27.3216 21.1398 27.3626C21.1213 27.4035 21.0874 27.4356 21.0454 27.4516C20.9579 27.4844 20.8594 27.4516 20.8157 27.3641L19.9298 25.2532C19.897 25.1766 19.9408 25.0782 20.0282 25.0344ZM21.0235 27.4298C21.1 27.3969 21.1329 27.3094 21.1 27.2438L20.2141 25.1329C20.1814 25.0563 20.0939 25.0235 20.0173 25.0563C19.9408 25.0891 19.9078 25.1766 19.9408 25.2423L20.8266 27.3532C20.8704 27.4298 20.9469 27.4625 21.0235 27.4298Z" fill="white"/>
<path id="Vector_61" d="M19.492 26.5985C19.5796 26.5658 19.667 26.6095 19.6998 26.697L20.0171 27.6595C20.0498 27.736 19.9952 27.8345 19.9187 27.8564C19.8312 27.8891 19.7437 27.8454 19.7109 27.7579L19.3937 26.7954C19.3609 26.7189 19.4045 26.6314 19.492 26.5985Z" fill="#F3F3F3"/>
<path id="Vector_62" d="M19.4812 26.5876C19.5233 26.5717 19.5699 26.5732 19.6109 26.5916C19.6519 26.6101 19.6839 26.644 19.6999 26.686L20.0172 27.6485C20.05 27.736 19.9953 27.8344 19.9077 27.8673C19.8656 27.8831 19.819 27.8817 19.778 27.8632C19.737 27.8448 19.705 27.8108 19.689 27.7688L19.3718 26.8064C19.3499 26.7189 19.3937 26.6204 19.4812 26.5876ZM19.9078 27.8453C19.9844 27.8235 20.0281 27.736 20.0063 27.6594L19.689 26.697C19.6672 26.6204 19.5797 26.5876 19.5031 26.6095C19.4264 26.6314 19.3827 26.7189 19.4046 26.7954L19.7218 27.7579C19.7274 27.7764 19.7368 27.7936 19.7495 27.8083C19.7621 27.823 19.7777 27.8348 19.7953 27.8431C19.8128 27.8514 19.8319 27.8558 19.8513 27.8562C19.8707 27.8566 19.8899 27.8528 19.9078 27.8453Z" fill="white"/>
<path id="Vector_63" d="M18.2011 25.6032C18.2885 25.5813 18.3762 25.636 18.387 25.7235L18.8465 27.9658C18.8684 28.0532 18.8027 28.1299 18.7151 28.1516C18.6277 28.1735 18.5401 28.1189 18.5293 28.0314L18.0697 25.7891C18.0589 25.7125 18.1136 25.6251 18.2011 25.6032Z" fill="#F3F3F3"/>
<path id="Vector_64" d="M18.2016 25.592C18.2999 25.5702 18.3874 25.6358 18.4093 25.7233L18.8686 27.9657C18.8905 28.0531 18.8248 28.1516 18.7373 28.1626C18.6389 28.1845 18.5514 28.1189 18.5296 28.0313L18.0702 25.7889C18.0484 25.7014 18.1033 25.6138 18.2016 25.592ZM18.7154 28.1406C18.7921 28.1298 18.8467 28.0531 18.8358 27.9656L18.3764 25.7233C18.3656 25.6467 18.2781 25.5921 18.2014 25.6139C18.1249 25.6248 18.0703 25.7014 18.0812 25.7889L18.5406 28.0313C18.5623 28.1079 18.6388 28.1514 18.7154 28.1406Z" fill="white"/>
<path id="Vector_65" d="M17.3708 27.0249C17.4583 27.014 17.5349 27.0688 17.5568 27.1562L17.688 28.1624C17.6989 28.2499 17.6333 28.3265 17.5457 28.3374C17.4583 28.3484 17.3818 28.2937 17.3599 28.2062L17.2287 27.1999C17.2178 27.1124 17.2834 27.0359 17.3708 27.0249Z" fill="#F3F3F3"/>
<path id="Vector_66" d="M17.3702 27.0141C17.4687 27.0033 17.5562 27.0689 17.5671 27.1564L17.6984 28.1626C17.7094 28.2501 17.6437 28.3376 17.5452 28.3486C17.4467 28.3595 17.3592 28.2939 17.3482 28.2063L17.217 27.2001C17.206 27.1126 17.2717 27.0251 17.3702 27.0141ZM17.5343 28.3267C17.6109 28.3158 17.6766 28.2392 17.6656 28.1626L17.5343 27.1564C17.5233 27.0798 17.4467 27.0251 17.3702 27.036C17.2936 27.047 17.2278 27.1235 17.2388 27.2001L17.3702 28.2064C17.3811 28.283 17.4577 28.3376 17.5343 28.3267Z" fill="white"/>
<path id="Vector_67" d="M16.2441 25.7999C16.3316 25.7999 16.4081 25.8656 16.4081 25.9531V28.239C16.4081 28.3265 16.3316 28.3922 16.2441 28.3922C16.1566 28.3922 16.0801 28.3265 16.0801 28.239V25.9531C16.091 25.8656 16.1566 25.7999 16.2441 25.7999Z" fill="#F3F3F3"/>
<path id="Vector_68" d="M16.2434 25.7889C16.3419 25.7889 16.4184 25.8655 16.4184 25.953V28.2389C16.4184 28.3264 16.3419 28.403 16.2434 28.403C16.145 28.403 16.0684 28.3264 16.0684 28.2389V25.9531C16.0684 25.8656 16.1559 25.7889 16.2434 25.7889ZM16.2434 28.3812C16.32 28.3812 16.3965 28.3156 16.3965 28.2389V25.9531C16.3965 25.8764 16.3309 25.8108 16.2434 25.8108C16.1669 25.8108 16.0903 25.8764 16.0903 25.9531V28.2389C16.1012 28.3156 16.1669 28.3812 16.2434 28.3812Z" fill="white"/>
<path id="Vector_69" d="M15.15 27.025C15.2375 27.0359 15.3031 27.1015 15.3031 27.189L15.2265 28.2063C15.2157 28.2938 15.139 28.3594 15.0515 28.3485C14.964 28.3375 14.8984 28.2719 14.8984 28.1844L14.975 27.1671C14.9859 27.0798 15.0625 27.014 15.15 27.025Z" fill="#F3F3F3"/>
<path id="Vector_70" d="M15.1502 27.0141C15.2486 27.0251 15.3142 27.1016 15.3142 27.1891L15.2377 28.2064C15.2267 28.2939 15.1502 28.3705 15.0517 28.3595C14.9534 28.3486 14.8877 28.272 14.8877 28.1845L14.9642 27.1672C14.9752 27.0689 15.0517 27.0033 15.1502 27.0141ZM15.0517 28.3376C15.1283 28.3376 15.2049 28.283 15.2049 28.2064L15.2815 27.1891C15.2815 27.1126 15.2267 27.047 15.1392 27.036C15.0627 27.036 14.9861 27.0907 14.9861 27.1673L14.9096 28.1845C14.9096 28.2611 14.9751 28.3268 15.0517 28.3376Z" fill="white"/>
<path id="Vector_71" d="M14.3301 25.6031C14.4176 25.6249 14.4722 25.7014 14.4613 25.7889L14.0128 28.0314C13.9909 28.1189 13.9144 28.1737 13.8269 28.1516C13.7394 28.1298 13.6848 28.0533 13.6957 27.9657L14.1441 25.7233C14.1551 25.6468 14.2426 25.5921 14.3301 25.6031Z" fill="#F3F3F3"/>
<path id="Vector_72" d="M14.3295 25.592C14.4279 25.6139 14.4826 25.7015 14.4717 25.7889L14.0232 28.0313C14.0013 28.1188 13.9138 28.1844 13.8155 28.1624C13.717 28.1405 13.6623 28.053 13.6732 27.9655L14.1217 25.7233C14.1436 25.6358 14.2312 25.5809 14.3295 25.592ZM13.8155 28.1405C13.892 28.1515 13.9686 28.1078 13.9905 28.0313L14.4388 25.7889C14.4498 25.7124 14.4061 25.6358 14.3186 25.6139C14.242 25.6031 14.1655 25.6468 14.1436 25.7234L13.6951 27.9655C13.6842 28.053 13.7388 28.1188 13.8155 28.1405Z" fill="white"/>
<path id="Vector_73" d="M13.0178 26.5877C13.1054 26.6096 13.16 26.6971 13.1381 26.7846L12.8647 27.7689C12.8429 27.8564 12.7554 27.9001 12.6679 27.8783C12.647 27.8733 12.6274 27.8642 12.6101 27.8516C12.5927 27.839 12.5781 27.8231 12.5669 27.8048C12.5557 27.7865 12.5482 27.7662 12.5449 27.745C12.5416 27.7238 12.5425 27.7022 12.5475 27.6814L12.821 26.6971C12.8429 26.6096 12.9303 26.5659 13.0178 26.5877Z" fill="#F3F3F3"/>
<path id="Vector_74" d="M13.0171 26.5768C13.1047 26.5986 13.1703 26.6971 13.1374 26.7846L12.864 27.769C12.8422 27.8565 12.7437 27.9112 12.6562 27.8892C12.5687 27.8674 12.5031 27.769 12.5359 27.6815L12.8093 26.6971C12.8312 26.6096 12.9187 26.5549 13.0171 26.5768ZM12.6562 27.8565C12.7328 27.8784 12.8203 27.8346 12.8422 27.758L13.1155 26.7736C13.1374 26.6971 13.0937 26.6205 13.0062 26.5986C12.9297 26.5767 12.8422 26.6205 12.8203 26.6971L12.5468 27.6815C12.5359 27.758 12.5796 27.8346 12.6562 27.8565Z" fill="white"/>
<path id="Vector_75" d="M12.4815 25.0454C12.569 25.0781 12.6018 25.1766 12.569 25.2531L11.6941 27.3641C11.6613 27.4407 11.5628 27.4844 11.4863 27.4407C11.4097 27.3969 11.3659 27.3094 11.3987 27.2329L12.2737 25.1219C12.3064 25.0454 12.4051 25.0016 12.4815 25.0454Z" fill="#F3F3F3"/>
<path id="Vector_76" d="M12.4809 25.0344C12.5229 25.0504 12.5569 25.0824 12.5754 25.1234C12.5938 25.1644 12.5952 25.2111 12.5794 25.2532L11.7043 27.364C11.6715 27.4515 11.573 27.4843 11.4746 27.4515C11.4326 27.4354 11.3986 27.4034 11.3802 27.3625C11.3617 27.3215 11.3603 27.2748 11.3761 27.2328L12.2511 25.1218C12.295 25.0344 12.3934 24.9907 12.4809 25.0344ZM11.4855 27.4297C11.5621 27.4624 11.6496 27.4297 11.6824 27.3531L12.5575 25.2422C12.5902 25.1657 12.5465 25.089 12.47 25.0563C12.3934 25.0235 12.3059 25.0563 12.273 25.1328L11.398 27.2437C11.3761 27.3093 11.409 27.3968 11.4855 27.4297Z" fill="white"/>
<path id="Vector_77" d="M11.0043 25.7454C11.0808 25.7891 11.1136 25.8766 11.0808 25.9532L10.6214 26.8608C10.5776 26.9374 10.4901 26.9702 10.4026 26.9264C10.3261 26.8827 10.2933 26.7953 10.3261 26.7187L10.7856 25.8111C10.8293 25.7345 10.9168 25.7016 11.0043 25.7454Z" fill="#F3F3F3"/>
<path id="Vector_78" d="M11.0052 25.7345C11.0927 25.7782 11.1255 25.8767 11.0818 25.9641L10.6224 26.8719C10.5786 26.9594 10.4801 26.9922 10.3927 26.9484C10.3052 26.9047 10.2724 26.8062 10.3162 26.7188L10.7755 25.8111C10.8193 25.7235 10.9177 25.6908 11.0052 25.7345ZM10.4037 26.9266C10.4802 26.9594 10.5677 26.9375 10.6005 26.8609L11.0599 25.9533C11.0926 25.8876 11.0599 25.8001 10.9943 25.7564C10.9177 25.7236 10.8302 25.7454 10.7974 25.822L10.338 26.7296C10.3052 26.7953 10.338 26.8829 10.4037 26.9266Z" fill="white"/>
<path id="Vector_79" d="M10.7854 24.1267C10.8619 24.1813 10.8838 24.2798 10.8292 24.3454L9.56041 26.2378C9.51672 26.3142 9.41815 26.3252 9.34172 26.2815C9.26517 26.2267 9.24327 26.1284 9.29791 26.0626L10.5667 24.1702C10.6104 24.0938 10.7088 24.0721 10.7854 24.1267Z" fill="#F3F3F3"/>
<path id="Vector_80" d="M10.7856 24.1157C10.8621 24.1704 10.884 24.2798 10.8402 24.3564L9.57152 26.2487C9.51687 26.3251 9.41841 26.347 9.33091 26.2924C9.25436 26.2376 9.23246 26.1283 9.27615 26.0516L10.545 24.1595C10.5996 24.0829 10.709 24.061 10.7856 24.1157ZM9.34186 26.2705C9.40735 26.3141 9.50592 26.3032 9.54961 26.2377L10.8184 24.3454C10.8621 24.2798 10.8403 24.1923 10.7746 24.1485C10.709 24.1048 10.6106 24.1158 10.5669 24.1813L9.29806 26.0626C9.25436 26.1283 9.27615 26.2268 9.34186 26.2705Z" fill="white"/>
<path id="Vector_81" d="M9.18869 24.5314C9.2544 24.586 9.27619 24.6845 9.22155 24.7501L8.58716 25.5485C8.53251 25.6141 8.43406 25.625 8.36847 25.5704C8.30287 25.5157 8.28097 25.4173 8.33572 25.3516L8.97 24.5532C9.02465 24.4877 9.1231 24.4766 9.18869 24.5314Z" fill="#F3F3F3"/>
<path id="Vector_82" d="M9.20015 24.5204C9.2767 24.575 9.28766 24.6845 9.2329 24.761L8.5986 25.5595C8.54395 25.636 8.43455 25.647 8.358 25.5814C8.28145 25.5266 8.27049 25.4173 8.32525 25.3407L8.95955 24.5423C9.0142 24.4656 9.1236 24.4548 9.20015 24.5204ZM8.3799 25.5595C8.44538 25.6141 8.533 25.6033 8.58764 25.5376L9.22206 24.7391C9.26586 24.6736 9.2548 24.586 9.18931 24.5313C9.1236 24.4766 9.0361 24.4875 8.98146 24.5533L8.34704 25.3516C8.30335 25.4173 8.31441 25.5157 8.3799 25.5595Z" fill="white"/>
<path id="Vector_83" d="M9.29863 22.8907C9.36423 22.9562 9.36423 23.0548 9.29863 23.1094L7.68 24.7171C7.61429 24.7829 7.51595 24.7719 7.46119 24.7171C7.40655 24.6625 7.3956 24.5531 7.46119 24.4985L9.06888 22.8907C9.13459 22.825 9.23304 22.825 9.29863 22.8907Z" fill="#F3F3F3"/>
<path id="Vector_84" d="M9.30889 22.8798C9.3404 22.9119 9.35806 22.9551 9.35806 23C9.35806 23.045 9.3404 23.0882 9.30889 23.1203L7.69014 24.7283C7.65805 24.7598 7.61487 24.7775 7.5699 24.7775C7.52493 24.7775 7.48175 24.7598 7.44966 24.7283C7.41808 24.6962 7.40039 24.653 7.40039 24.6079C7.40039 24.5629 7.41808 24.5197 7.44966 24.4876L9.0683 22.8798C9.1004 22.8482 9.1436 22.8306 9.1886 22.8306C9.2336 22.8306 9.2768 22.8482 9.30889 22.8798ZM7.4605 24.7172C7.51514 24.7719 7.61359 24.7719 7.66824 24.7172L9.28699 23.1093C9.34175 23.0547 9.34175 22.9562 9.28699 22.9016C9.23235 22.8468 9.1339 22.8468 9.07926 22.9016L7.4605 24.5094C7.40586 24.564 7.40586 24.6517 7.4605 24.7172Z" fill="white"/>
<path id="Vector_85" d="M7.65734 22.9782C7.71198 23.0437 7.71198 23.1423 7.64639 23.1969L6.86984 23.8533C6.80424 23.908 6.70579 23.897 6.65103 23.8314C6.59639 23.7657 6.59639 23.6673 6.66198 23.6126L7.43853 22.9563C7.50424 22.9016 7.60258 22.9125 7.65734 22.9782Z" fill="#F3F3F3"/>
<path id="Vector_86" d="M7.66895 22.9672C7.73454 23.0438 7.72359 23.1531 7.65799 23.2079L6.88144 23.864C6.81584 23.9297 6.70644 23.9188 6.64084 23.8422C6.57513 23.7656 6.58608 23.6563 6.65168 23.6015L7.42835 22.9454C7.49383 22.8798 7.60347 22.8907 7.66895 22.9672ZM6.66263 23.8313C6.71739 23.8969 6.80489 23.8969 6.87038 23.8532L7.64704 23.1969C7.70169 23.1423 7.71264 23.0547 7.65799 22.9892C7.60324 22.9235 7.51574 22.9235 7.45025 22.9673L6.67359 23.6235C6.60799 23.6781 6.60799 23.7658 6.66263 23.8313Z" fill="white"/>
<path id="Vector_87" d="M8.09542 21.4031C8.15007 21.4798 8.12817 21.5781 8.05162 21.6219L6.14853 22.8906C6.07199 22.9343 5.97354 22.9124 5.92984 22.8468C5.87508 22.7703 5.89699 22.6719 5.97354 22.628L7.87673 21.3594C7.94244 21.3157 8.04066 21.3375 8.09542 21.4031Z" fill="#F3F3F3"/>
<path id="Vector_88" d="M8.10652 21.4031C8.16117 21.4798 8.13927 21.5891 8.06272 21.6439L6.15966 22.9125C6.08311 22.9673 5.97371 22.9453 5.91907 22.8579C5.86431 22.7813 5.88633 22.6719 5.96276 22.6173L7.86593 21.3485C7.94248 21.2939 8.05188 21.3158 8.10652 21.4031ZM5.94097 22.836C5.98467 22.9016 6.07216 22.9235 6.13776 22.8798L8.04082 21.611C8.10652 21.5673 8.12831 21.4798 8.07367 21.4033C8.02998 21.3376 7.94248 21.3158 7.87677 21.3595L5.97371 22.6282C5.90812 22.6829 5.89717 22.7704 5.94097 22.836Z" fill="white"/>
<path id="Vector_89" d="M6.46581 21.1735C6.50962 21.25 6.48772 21.3485 6.41117 21.3923L5.5252 21.8953C5.44865 21.939 5.3502 21.9063 5.30651 21.8297C5.2627 21.7532 5.2846 21.6547 5.36115 21.6109L6.24712 21.1079C6.32366 21.0641 6.42201 21.0969 6.46581 21.1735Z" fill="#F3F3F3"/>
<path id="Vector_90" d="M6.47685 21.1625C6.52054 21.25 6.49864 21.3484 6.42209 21.3922L5.53615 21.8953C5.4596 21.939 5.3502 21.9062 5.30651 21.8297C5.2627 21.7422 5.2846 21.6437 5.36115 21.5999L6.24709 21.0969C6.32364 21.0531 6.43316 21.0859 6.47685 21.1625ZM5.31734 21.8187C5.36115 21.8953 5.44865 21.9172 5.51424 21.8734L6.40019 21.3703C6.46578 21.3265 6.48768 21.239 6.45494 21.1734C6.41114 21.0969 6.32364 21.075 6.25804 21.1188L5.3721 21.6218C5.30651 21.6546 5.28448 21.7422 5.31734 21.8187Z" fill="white"/>
<path id="Vector_91" d="M7.19798 19.7188C7.23073 19.8063 7.19798 19.8939 7.11048 19.9266L4.99953 20.8016C4.92298 20.8345 4.82453 20.7908 4.79179 20.7141C4.75894 20.6266 4.79179 20.5391 4.87929 20.5064L6.99024 19.6313C7.06679 19.5986 7.16524 19.6313 7.19798 19.7188Z" fill="#F3F3F3"/>
<path id="Vector_92" d="M7.20894 19.7079C7.24168 19.7954 7.20894 19.8938 7.12144 19.9375L5.01048 20.8125C4.96842 20.8284 4.92179 20.8269 4.8808 20.8085C4.83982 20.79 4.80781 20.7561 4.79179 20.7141C4.75894 20.6266 4.79179 20.5281 4.87929 20.4844L6.99024 19.6094C7.0323 19.5936 7.07893 19.595 7.11992 19.6135C7.16091 19.6319 7.19292 19.6659 7.20894 19.7079ZM4.81358 20.7031C4.84644 20.7798 4.93394 20.8126 4.99953 20.7906L7.11048 19.9156C7.18703 19.8829 7.21989 19.7954 7.18703 19.7188C7.15429 19.6423 7.06679 19.6094 7.00108 19.6313L4.89013 20.5063C4.81358 20.5391 4.78084 20.6265 4.81358 20.7031Z" fill="white"/>
<path id="Vector_93" d="M5.65643 19.1719C5.68917 19.2594 5.64548 19.3469 5.55797 19.3797L4.59547 19.6969C4.51892 19.7297 4.42047 19.675 4.39856 19.5985C4.36582 19.511 4.40952 19.4235 4.49702 19.3907L5.45952 19.0735C5.53607 19.0407 5.62357 19.0844 5.65643 19.1719Z" fill="#F3F3F3"/>
<path id="Vector_94" d="M5.66655 19.161C5.69941 19.2485 5.65571 19.347 5.55726 19.3798L4.59477 19.697C4.50728 19.7297 4.40882 19.6751 4.37597 19.5876C4.34323 19.5001 4.38692 19.4016 4.48549 19.3689L5.44786 19.0516C5.53536 19.0298 5.6337 19.0734 5.66655 19.161ZM4.39799 19.5767C4.41989 19.6533 4.50739 19.6971 4.58394 19.6752L5.54642 19.3579C5.62297 19.3361 5.65583 19.2486 5.63392 19.172C5.61202 19.0955 5.52452 19.0517 5.44797 19.0736L4.48549 19.3909C4.40894 19.4236 4.37608 19.5002 4.39799 19.5767Z" fill="white"/>
<path id="Vector_95" d="M6.64117 17.8703C6.66296 17.9578 6.60831 18.0453 6.52081 18.0563L4.27857 18.4938C4.19107 18.5157 4.11452 18.45 4.09273 18.3625C4.07083 18.275 4.12547 18.1875 4.21297 18.1765L6.45522 17.739C6.54272 17.7282 6.63033 17.7828 6.64117 17.8703Z" fill="#F3F3F3"/>
<path id="Vector_96" d="M6.66238 17.8704C6.68428 17.9688 6.61869 18.0563 6.53119 18.0781L4.28893 18.5156C4.20143 18.5375 4.11393 18.4719 4.09214 18.3735C4.07023 18.275 4.13583 18.1875 4.22333 18.1657L6.46559 17.7282C6.55298 17.7063 6.64059 17.7719 6.66238 17.8704ZM4.11393 18.3626C4.12488 18.4391 4.20143 18.4938 4.27798 18.4829L6.52023 18.0454C6.59678 18.0344 6.65143 17.9469 6.62964 17.8704C6.61869 17.7938 6.54214 17.7391 6.46548 17.75L4.22333 18.1875C4.14678 18.2094 4.09214 18.2861 4.11393 18.3626Z" fill="white"/>
<path id="Vector_97" d="M5.24065 17.0283C5.25149 17.1157 5.19685 17.1923 5.10935 17.2033L4.10315 17.3236C4.01554 17.3345 3.93899 17.2689 3.92815 17.1813C3.9172 17.0939 3.97185 17.0173 4.05935 17.0062L5.06565 16.886C5.1422 16.875 5.2297 16.9406 5.24065 17.0283Z" fill="#F3F3F3"/>
<path id="Vector_98" d="M5.25161 17.0282C5.26245 17.1265 5.19685 17.214 5.10935 17.2249L4.10316 17.3453C4.01555 17.3562 3.92816 17.2906 3.91721 17.1922C3.90625 17.0937 3.97185 17.0063 4.05935 16.9953L5.06566 16.875C5.15305 16.864 5.24077 16.9299 5.25161 17.0282ZM3.92805 17.1812C3.939 17.2578 4.01566 17.3235 4.09221 17.3124L5.0984 17.1922C5.17495 17.1812 5.22971 17.1047 5.21876 17.0282C5.2078 16.9515 5.13126 16.8859 5.05471 16.8969L4.0484 17.0172C3.97185 17.0282 3.91721 17.1047 3.92805 17.1812Z" fill="white"/>
<path id="Vector_99" d="M6.46507 15.9671C6.46507 16.0547 6.39959 16.1313 6.31197 16.1313H4.02615C3.93865 16.1313 3.87305 16.0547 3.87305 15.9672C3.87305 15.8798 3.93865 15.8031 4.02615 15.8031H6.31209C6.39959 15.8031 6.46507 15.8797 6.46507 15.9671Z" fill="#F3F3F3"/>
<path id="Vector_100" d="M6.47635 15.9671C6.47635 16.0657 6.39969 16.1421 6.31219 16.1421H4.02635C3.93885 16.1421 3.8623 16.0656 3.8623 15.9671C3.8623 15.8688 3.93885 15.7921 4.02635 15.7921H6.3123C6.3998 15.7921 6.47635 15.8688 6.47635 15.9671ZM3.88409 15.9563C3.88409 16.0328 3.94969 16.1094 4.02635 16.1094H6.31219C6.38874 16.1094 6.45444 16.0438 6.45444 15.9563C6.45444 15.8797 6.38874 15.8031 6.31219 15.8031H4.02635C3.9498 15.814 3.88409 15.8797 3.88409 15.9563Z" fill="white"/>
<path id="Vector_101" d="M5.25151 14.8625C5.24044 14.95 5.17484 15.0156 5.08734 15.0156L4.07007 14.9391C3.98268 14.9281 3.91709 14.8516 3.92793 14.7641C3.93888 14.6766 4.00459 14.611 4.09209 14.611L5.10925 14.6875C5.1858 14.6985 5.25151 14.775 5.25151 14.8625Z" fill="#E2E2E2"/>
<path id="Vector_102" d="M5.26229 14.8625C5.25134 14.9609 5.17479 15.0265 5.08729 15.0265L4.07004 14.95C3.98265 14.939 3.90611 14.8625 3.91706 14.764C3.9279 14.6657 4.00456 14.6 4.09206 14.6L5.1092 14.6765C5.1967 14.6875 5.26229 14.775 5.26229 14.8625ZM3.9279 14.764C3.91706 14.8406 3.98265 14.9172 4.0592 14.9172L5.07645 14.9938C5.15289 14.9938 5.2186 14.939 5.22955 14.8515C5.2405 14.775 5.17479 14.6984 5.09825 14.6984L4.08099 14.6219C4.00456 14.6219 3.93885 14.6874 3.9279 14.764Z" fill="white"/>
<path id="Vector_103" d="M6.66265 14.064C6.64075 14.1515 6.5642 14.2062 6.4767 14.1953L4.23455 13.7359C4.14706 13.714 4.0923 13.6375 4.1142 13.55C4.1361 13.4625 4.21265 13.4077 4.30015 13.4188L6.54241 13.8672C6.61896 13.889 6.6736 13.9765 6.66265 14.064Z" fill="#F3F3F3"/>
<path id="Vector_104" d="M6.67311 14.0641C6.6512 14.1625 6.5637 14.2173 6.4762 14.2063L4.23407 13.7579C4.14657 13.736 4.08098 13.6485 4.10288 13.5501C4.12467 13.4516 4.21217 13.3969 4.29967 13.4079L6.54191 13.8563C6.62941 13.8782 6.68406 13.9657 6.67311 14.0641ZM4.12467 13.55C4.11372 13.6266 4.15741 13.7031 4.23407 13.725L6.47632 14.1735C6.55286 14.1844 6.62941 14.1407 6.65131 14.0531C6.66215 13.9766 6.61846 13.9 6.5418 13.8781L4.29978 13.4298C4.21228 13.4188 4.14657 13.4735 4.12467 13.55Z" fill="white"/>
<path id="Vector_105" d="M5.67811 12.7516C5.67309 12.7725 5.66401 12.7921 5.65139 12.8094C5.63878 12.8268 5.62287 12.8414 5.60458 12.8526C5.58629 12.8637 5.56598 12.8712 5.54481 12.8745C5.52364 12.8778 5.50203 12.8769 5.4812 12.8719L4.49679 12.5984C4.40929 12.5765 4.36559 12.4891 4.38738 12.4016C4.3924 12.3807 4.40148 12.3611 4.4141 12.3438C4.42672 12.3265 4.44262 12.3118 4.46091 12.3006C4.4792 12.2895 4.49951 12.282 4.52068 12.2787C4.54185 12.2754 4.56346 12.2763 4.58429 12.2813L5.5687 12.5548C5.6562 12.5765 5.6999 12.6641 5.67811 12.7516Z" fill="#F3F3F3"/>
<path id="Vector_106" d="M5.68942 12.7516C5.66763 12.839 5.56918 12.9047 5.48167 12.8718L4.49725 12.5984C4.40975 12.5765 4.35499 12.4781 4.3769 12.3907C4.3988 12.3031 4.49725 12.2375 4.58475 12.2703L5.56918 12.5438C5.65668 12.5657 5.71144 12.6533 5.68942 12.7516ZM4.40975 12.3905C4.38785 12.4671 4.43165 12.5546 4.5082 12.5764L5.49263 12.8498C5.56918 12.8717 5.64572 12.8279 5.66763 12.7404C5.68942 12.6639 5.64572 12.5764 5.56918 12.5546L4.58475 12.2812C4.5082 12.2702 4.43165 12.3138 4.40975 12.3905Z" fill="white"/>
<path id="Vector_107" d="M7.22004 12.2267C7.1873 12.3141 7.08873 12.3469 7.0123 12.3141L4.90123 11.4391C4.82468 11.4063 4.78099 11.3079 4.81373 11.2313C4.84659 11.1438 4.94504 11.111 5.02159 11.1438L7.13254 12.0188C7.22004 12.0516 7.25289 12.1501 7.22004 12.2267Z" fill="#F3F3F3"/>
<path id="Vector_108" d="M7.23149 12.2375C7.21547 12.2796 7.18345 12.3135 7.14243 12.332C7.10141 12.3504 7.05476 12.3519 7.01268 12.336L4.90171 11.461C4.81421 11.4283 4.78147 11.3298 4.81421 11.2314C4.83023 11.1893 4.86226 11.1554 4.90327 11.1369C4.94429 11.1185 4.99095 11.117 5.03302 11.1329L7.14399 12.0079C7.23149 12.0516 7.26423 12.1501 7.23149 12.2375ZM4.83612 11.2423C4.80338 11.3189 4.83612 11.4064 4.91267 11.4391L7.02363 12.3141C7.10018 12.3469 7.17673 12.3031 7.20958 12.2266C7.24233 12.15 7.20958 12.0625 7.13304 12.0298L5.02207 11.1548C4.94552 11.1329 4.85802 11.1658 4.83612 11.2423Z" fill="white"/>
<path id="Vector_109" d="M6.50941 10.75C6.46571 10.8266 6.37821 10.8594 6.30166 10.8266L5.39381 10.3673C5.31726 10.3344 5.28441 10.236 5.32821 10.1484C5.37191 10.0719 5.45941 10.039 5.53595 10.0719L6.4437 10.5313C6.52036 10.575 6.55321 10.6736 6.50941 10.75Z" fill="#F3F3F3"/>
<path id="Vector_110" d="M6.52047 10.761C6.47666 10.8485 6.37821 10.8814 6.29071 10.8375L5.38297 10.3781C5.29547 10.3344 5.26262 10.236 5.30643 10.1485C5.35012 10.061 5.44868 10.0281 5.53607 10.0719L6.44381 10.5313C6.53142 10.5641 6.56416 10.6736 6.52047 10.761ZM5.33918 10.1594C5.30644 10.236 5.32833 10.3235 5.40488 10.3563L6.31261 10.8158C6.37832 10.8485 6.46582 10.8158 6.50952 10.75C6.54226 10.6735 6.52047 10.586 6.44392 10.5531L5.52501 10.094C5.45941 10.0612 5.37203 10.0829 5.33918 10.1594Z" fill="white"/>
<path id="Vector_111" d="M8.11677 10.5422C8.06212 10.6188 7.97462 10.6407 7.89807 10.586L6.00577 9.32823C5.92933 9.28442 5.91838 9.18597 5.96208 9.10942C6.00588 9.03287 6.10434 9.01097 6.18089 9.06562L8.08403 10.3344C8.14962 10.3782 8.17153 10.4767 8.11677 10.5422Z" fill="#F3F3F3"/>
<path id="Vector_112" d="M8.12776 10.5531C8.07312 10.6298 7.96372 10.6516 7.88728 10.6079L5.99504 9.33905C5.91849 9.28441 5.89659 9.18596 5.95123 9.09857C6.00599 9.02191 6.11539 9 6.19194 9.04381L8.08407 10.3125C8.17157 10.3673 8.18252 10.4766 8.12776 10.5531ZM5.97313 9.10941C5.92944 9.175 5.94039 9.27346 6.00588 9.31715L7.90907 10.5861C7.97467 10.6299 8.06217 10.608 8.10597 10.5424C8.14967 10.4767 8.13872 10.3782 8.07323 10.3345L6.16992 9.06571C6.10433 9.02191 6.01694 9.04381 5.97313 9.10941Z" fill="white"/>
<path id="Vector_113" d="M7.71272 8.9563C7.65807 9.02189 7.55962 9.04379 7.49402 8.98904L6.69556 8.36571C6.62996 8.31096 6.61901 8.21251 6.67365 8.14691C6.7283 8.08132 6.82675 8.05941 6.89246 8.11417L7.69081 8.73749C7.75652 8.79225 7.76748 8.89059 7.71272 8.9563Z" fill="#F3F3F3"/>
<path id="Vector_114" d="M7.72318 8.96712C7.66854 9.04378 7.55914 9.05473 7.48259 8.99998L6.68416 8.37665C6.60761 8.322 6.59666 8.2126 6.65141 8.13617C6.70606 8.05951 6.81546 8.04856 6.89189 8.10332L7.69033 8.72664C7.76699 8.7814 7.77794 8.89046 7.72318 8.96712ZM6.6732 8.14689C6.61856 8.21249 6.62951 8.29999 6.69511 8.35463L7.49354 8.97819C7.55914 9.02188 7.64663 9.01093 7.70128 8.94533C7.75604 8.87974 7.74508 8.79224 7.67949 8.73759L6.88105 8.11404C6.81546 8.07035 6.72773 8.0813 6.6732 8.14689Z" fill="white"/>
<path id="Vector_115" d="M9.34174 9.06562C9.27626 9.13133 9.17769 9.13133 9.12304 9.06562L7.49347 7.45786C7.42787 7.39227 7.43871 7.29381 7.49347 7.23905C7.55907 7.17357 7.65752 7.17357 7.71217 7.23905L9.33102 8.84692C9.39662 8.90157 9.39639 9.01086 9.34174 9.06562Z" fill="#F3F3F3"/>
<path id="Vector_116" d="M9.34226 9.0766C9.31017 9.10811 9.26699 9.12576 9.22201 9.12576C9.17704 9.12576 9.13386 9.10811 9.10177 9.0766L7.48287 7.46864C7.45129 7.43654 7.43359 7.39332 7.43359 7.34829C7.43359 7.30326 7.45129 7.26003 7.48287 7.22793C7.51496 7.19639 7.55816 7.17871 7.60316 7.17871C7.64817 7.17871 7.69137 7.19639 7.72346 7.22793L9.34226 8.83578C9.4188 8.90137 9.4188 9.011 9.34226 9.0766ZM7.505 7.24984C7.45024 7.30459 7.45024 7.40304 7.505 7.45758L9.12368 9.06542C9.17843 9.12018 9.27677 9.12018 9.33142 9.06542C9.38617 9.01077 9.38617 8.91232 9.33142 8.85768L7.71274 7.239C7.65809 7.18435 7.57048 7.18424 7.505 7.24984Z" fill="white"/>
<path id="Vector_117" d="M9.24422 7.43593C9.17862 7.49068 9.08016 7.49068 9.0254 7.42497L8.35816 6.65938C8.30363 6.59378 8.31446 6.49533 8.38017 6.44068C8.44566 6.38593 8.54422 6.38593 8.59886 6.45152L9.26612 7.21723C9.32076 7.27188 9.30981 7.37033 9.24422 7.43593Z" fill="#F3F3F3"/>
<path id="Vector_118" d="M9.25463 7.43593C9.17808 7.50153 9.07963 7.49069 9.01392 7.42498L8.34678 6.65938C8.28118 6.59378 8.29213 6.48438 8.36868 6.41878C8.44523 6.35307 8.54368 6.36402 8.60928 6.42973L9.27654 7.19522C9.33118 7.27188 9.33118 7.38129 9.25463 7.43593ZM8.37963 6.44068C8.31392 6.49533 8.31392 6.58283 8.35773 6.64843L9.02499 7.41403C9.07963 7.46879 9.16713 7.47974 9.23273 7.42498C9.29833 7.37034 9.29833 7.28272 9.25463 7.21724L8.58738 6.45152C8.53273 6.38604 8.44512 6.38604 8.37963 6.44068Z" fill="white"/>
<path id="Vector_119" d="M10.8191 7.85171C10.7425 7.90635 10.6441 7.88445 10.6003 7.8079L9.32064 5.91566C9.27684 5.83911 9.29874 5.74066 9.36433 5.69696C9.44088 5.64232 9.53933 5.66422 9.58314 5.74077L10.8518 7.6329C10.9066 7.70945 10.8847 7.80802 10.8191 7.85171Z" fill="#F3F3F3"/>
<path id="Vector_120" d="M10.8184 7.86251C10.7418 7.91727 10.6324 7.89526 10.5777 7.81882L9.30908 5.92655C9.25444 5.85 9.27633 5.74071 9.36371 5.68606C9.44026 5.63131 9.54966 5.65321 9.60441 5.72976L10.873 7.62192C10.9277 7.70942 10.9058 7.80787 10.8184 7.86251ZM9.37455 5.70785C9.30896 5.75155 9.28706 5.83905 9.33086 5.90476L10.5995 7.79692C10.6433 7.86251 10.7308 7.87347 10.8072 7.82966C10.8729 7.78597 10.8948 7.69846 10.851 7.63287L9.58251 5.75155C9.53871 5.68606 9.44003 5.66405 9.37455 5.70785Z" fill="white"/>
<path id="Vector_121" d="M11.048 6.23295C10.9715 6.27664 10.8731 6.25485 10.8294 6.1783L10.3262 5.29235C10.2825 5.2158 10.3152 5.11735 10.3919 5.07355C10.4684 5.02985 10.5669 5.05164 10.6106 5.1283L11.1136 6.01414C11.1465 6.09069 11.1244 6.18914 11.048 6.23295Z" fill="#F3F3F3"/>
<path id="Vector_122" d="M11.0486 6.24391C10.9611 6.2876 10.8626 6.26581 10.819 6.18915L10.3157 5.30331C10.2721 5.22664 10.294 5.11735 10.3815 5.07355C10.469 5.02985 10.5674 5.05164 10.6111 5.1283L11.1142 6.01415C11.158 6.0907 11.136 6.18915 11.0486 6.24391ZM10.3924 5.0845C10.3267 5.12819 10.294 5.21569 10.3377 5.2814L10.8409 6.16736C10.8845 6.23284 10.972 6.25486 11.0376 6.22201C11.1034 6.17831 11.1361 6.0907 11.0924 6.0251L10.5892 5.13914C10.5565 5.07366 10.458 5.04069 10.3924 5.0845Z" fill="white"/>
<path id="Vector_123" d="M12.503 6.95474C12.4157 6.98748 12.3281 6.95474 12.2953 6.87819L11.4094 4.76713C11.3767 4.69058 11.4204 4.59213 11.4969 4.55927C11.5844 4.52653 11.6719 4.55927 11.7046 4.63582L12.5905 6.74677C12.6234 6.82332 12.5797 6.922 12.503 6.95474Z" fill="#F3F3F3"/>
<path id="Vector_124" d="M12.5035 6.9657C12.4161 6.99845 12.3177 6.9657 12.2738 6.87809L11.3879 4.76727C11.372 4.72519 11.3734 4.67853 11.3919 4.63752C11.4103 4.5965 11.4443 4.56448 11.4863 4.54846C11.5738 4.51572 11.6723 4.54846 11.7161 4.63596L12.6019 6.7469C12.6348 6.82345 12.591 6.9219 12.5035 6.9657ZM11.5082 4.57036C11.4317 4.60311 11.3988 4.69072 11.4317 4.75632L12.3175 6.86714C12.3503 6.94369 12.4378 6.97643 12.5143 6.94369C12.5909 6.91095 12.6239 6.82333 12.5909 6.75774L11.705 4.6468C11.6612 4.57025 11.5848 4.53751 11.5082 4.57036Z" fill="white"/>
<path id="Vector_125" d="M13.0385 5.40174C12.951 5.43448 12.8635 5.39068 12.8308 5.30329L12.5136 4.34069C12.4808 4.26414 12.5355 4.16569 12.612 4.1439C12.6885 4.122 12.787 4.15485 12.8197 4.24235L13.137 5.20484C13.1697 5.28139 13.126 5.369 13.0385 5.40174Z" fill="#F3F3F3"/>
<path id="Vector_126" d="M13.0504 5.41251C13.0084 5.42837 12.9617 5.42691 12.9207 5.40845C12.8798 5.39 12.8477 5.35606 12.8317 5.31406L12.5145 4.35156C12.4817 4.26406 12.5364 4.16572 12.624 4.13287C12.666 4.11701 12.7127 4.11847 12.7537 4.13693C12.7947 4.15538 12.8267 4.18932 12.8427 4.23132L13.1598 5.19382C13.1817 5.28132 13.1379 5.37977 13.0504 5.41251ZM12.6239 4.15477C12.5473 4.17656 12.5035 4.26406 12.5254 4.34061L12.8427 5.30322C12.8645 5.37977 12.952 5.41251 13.0286 5.39061C13.1052 5.36882 13.1489 5.28132 13.127 5.20477L12.8098 4.24216C12.8042 4.22359 12.7948 4.20641 12.7822 4.19172C12.7695 4.17704 12.7539 4.16518 12.7364 4.15693C12.7188 4.14867 12.6997 4.1442 12.6804 4.14381C12.661 4.14342 12.6417 4.14723 12.6239 4.15477Z" fill="white"/>
<path id="Vector_127" d="M14.3292 6.3969C14.2417 6.4188 14.1542 6.36416 14.1433 6.27655L13.6839 4.03441C13.662 3.94692 13.7277 3.87037 13.8151 3.84846C13.9027 3.82656 13.9901 3.88121 14.001 3.96882L14.4605 6.21106C14.4714 6.2875 14.4167 6.375 14.3292 6.3969Z" fill="#F3F3F3"/>
<path id="Vector_128" d="M14.3297 6.40785C14.2312 6.42976 14.1437 6.36405 14.1218 6.27655L13.6624 4.0344C13.6405 3.9469 13.7062 3.84845 13.7937 3.8375C13.8922 3.81559 13.9797 3.8813 14.0015 3.9688L14.461 6.21106C14.4828 6.29845 14.4281 6.38606 14.3297 6.40785ZM13.8156 3.8594C13.739 3.87035 13.6843 3.9469 13.6953 4.0344L14.1547 6.27666C14.1656 6.35309 14.253 6.40785 14.3297 6.38595C14.4062 6.375 14.4609 6.29845 14.4499 6.21095L13.9905 3.96869C13.9687 3.89226 13.8923 3.84845 13.8156 3.8594Z" fill="white"/>
<path id="Vector_129" d="M15.1612 4.97504C15.0737 4.98599 14.9971 4.93134 14.9752 4.84384L14.844 3.83752C14.8331 3.75002 14.8987 3.67347 14.9863 3.66252C15.0737 3.65157 15.1502 3.70633 15.1721 3.79383L15.3033 4.80003C15.3143 4.88754 15.2487 4.96409 15.1612 4.97504Z" fill="#F3F3F3"/>
<path id="Vector_130" d="M15.1613 4.98597C15.0628 4.99693 14.9753 4.93133 14.9644 4.84372L14.8332 3.83752C14.8222 3.75002 14.8878 3.66252 14.9863 3.65156C15.0847 3.64072 15.1722 3.70632 15.1832 3.79382L15.3144 4.80002C15.3253 4.88752 15.2597 4.97502 15.1613 4.98597ZM14.9972 3.67347C14.9207 3.68442 14.855 3.76097 14.8659 3.83752L14.9972 4.84383C15.0082 4.92038 15.0847 4.97502 15.1613 4.96407C15.2378 4.95323 15.3035 4.87657 15.2926 4.80002L15.1613 3.79382C15.1503 3.71727 15.0738 3.66252 14.9972 3.67347Z" fill="white"/>
<path id="Vector_131" d="M16.3426 28.9391C23.4946 28.9391 29.2926 23.1411 29.2926 15.9891C29.2926 8.83697 23.4946 3.03906 16.3426 3.03906C9.1905 3.03906 3.39258 8.83697 3.39258 15.9891C3.39258 23.1411 9.1905 28.9391 16.3426 28.9391Z" fill="url(#paint2_linear_1_615)" fill-opacity="0.2"/>
<path id="Vector_132" d="M25.311 7.77502L14.8657 14.4688H14.8547V14.4797L14.8438 14.4906L8.3252 25.2423L17.9064 17.5313L17.9173 17.5205V17.5095L25.311 7.77502Z" fill="black" fill-opacity="0.05"/>
<path id="Vector_133" d="M25.1141 7.15149L14.7891 14.4905L17.8516 17.5311L25.1141 7.15149Z" fill="#CD151E"/>
<path id="Vector_134" d="M14.7998 14.4687L16.342 15.989L25.1138 7.15149L14.7998 14.4687Z" fill="#FA5153"/>
<path id="Vector_135" d="M14.7996 14.4687L17.8621 17.5092L7.53711 24.8484L14.7996 14.4687Z" fill="#ACACAC"/>
<path id="Vector_136" d="M7.53711 24.8484L16.3417 15.989L14.7995 14.4686L7.53711 24.8484Z" fill="#EEEEEE"/>
</g>
</g>
<defs>
<linearGradient id="paint0_linear_1_615" x1="16.2656" y1="30" x2="16.2656" y2="2" gradientUnits="userSpaceOnUse">
<stop offset="0.25" stop-color="#DBDBDA"/>
<stop offset="1" stop-color="white"/>
</linearGradient>
<radialGradient id="paint1_radial_1_615" cx="0" cy="0" r="1" gradientUnits="userSpaceOnUse" gradientTransform="translate(18.0849 13.1553) scale(15.8073 15.8073)">
<stop stop-color="#2ABCE1"/>
<stop offset="0.11363" stop-color="#2ABBE1"/>
<stop offset="1" stop-color="#3375F8"/>
</radialGradient>
<linearGradient id="paint2_linear_1_615" x1="16.0965" y1="12.2861" x2="10.0522" y2="23.1302" gradientUnits="userSpaceOnUse">
<stop stop-opacity="0"/>
<stop offset="1"/>
</linearGradient>
</defs>
</svg>
