<svg width="33" height="32" viewBox="0 0 33 32" fill="none" xmlns="http://www.w3.org/2000/svg">
<g id="623993f7fe0520e5de3252f4_chrome.svg">
<g id="Group" style="mix-blend-mode:luminosity">
<path id="Vector" d="M16.188 2.00382C16.188 2.00382 24.4402 1.63483 28.8153 9.8999H15.4858C15.4858 9.8999 12.9703 9.81911 10.8215 12.8599C10.2042 14.1363 9.5407 15.451 10.2853 18.042C9.21267 16.2313 4.59082 8.21234 4.59082 8.21234C4.59082 8.21234 7.85092 2.33057 16.188 2.00382Z" fill="#EF3F36"/>
<path id="Vector_2" d="M28.3869 22.9856C28.3869 22.9856 24.579 30.2935 15.2119 29.9321C16.3693 27.9369 21.8785 18.4302 21.8785 18.4302C21.8785 18.4302 23.2095 16.3005 21.6393 12.9253C20.8406 11.7528 20.0266 10.5265 17.4032 9.87287C19.5136 9.85377 28.792 9.87287 28.792 9.87287C28.792 9.87287 32.268 15.6278 28.3869 22.9856Z" fill="#FCD900"/>
<path id="Vector_3" d="M4.04681 23.0433C4.04681 23.0433 -0.401491 16.1044 4.59845 8.20068C5.75202 10.1959 11.2612 19.7027 11.2612 19.7027C11.2612 19.7027 12.4495 21.917 16.1647 22.2475C17.5807 22.1437 19.0544 22.0553 20.9372 20.1217C19.8992 21.9516 15.2426 29.9476 15.2426 29.9476C15.2426 29.9476 8.49895 30.0706 4.04681 23.0433Z" fill="#61BC5B"/>
<path id="Vector_4" d="M15.208 30.0013L17.083 22.2053C17.083 22.2053 19.1432 22.0437 20.8717 20.1562C19.799 22.0362 15.208 30.0013 15.208 30.0013Z" fill="#5AB055"/>
<path id="Vector_5" d="M9.90723 16.089C9.90723 12.6523 12.7043 9.86523 16.1533 9.86523C19.6023 9.86523 22.3994 12.6523 22.3994 16.089C22.3994 19.5257 19.6023 22.3127 16.1533 22.3127C12.7043 22.3089 9.90723 19.5257 9.90723 16.089Z" fill="white"/>
<path id="Vector_6" d="M10.9531 16.0891C10.9531 13.2291 13.2796 10.9071 16.1538 10.9071C19.0241 10.9071 21.3544 13.2252 21.3544 16.0891C21.3544 18.9493 19.0281 21.2713 16.1538 21.2713C13.2834 21.2713 10.9531 18.9493 10.9531 16.0891Z" fill="url(#paint0_linear_1_602)"/>
<path id="Vector_7" d="M28.7882 9.87685L21.0683 12.1334C21.0683 12.1334 19.9032 10.4303 17.3994 9.87685C19.5715 9.86528 28.7882 9.87685 28.7882 9.87685Z" fill="#EACA05"/>
<path id="Vector_8" d="M10.1349 17.7576C9.05063 15.8854 4.59082 8.21228 4.59082 8.21228L10.3084 13.8479C10.3084 13.8479 9.72191 15.0512 9.94191 16.7734L10.1349 17.7576Z" fill="#DF3A32"/>
</g>
</g>
<defs>
<linearGradient id="paint0_linear_1_602" x1="16.1536" y1="10.9803" x2="16.1536" y2="20.9593" gradientUnits="userSpaceOnUse">
<stop stop-color="#86BBE5"/>
<stop offset="1" stop-color="#1072BA"/>
</linearGradient>
</defs>
</svg>
